<svg xmlns="http://www.w3.org/2000/svg" viewBox="0 0 500 500"><defs><style>.cls-1{isolation:isolate;}.cls-2{fill:#ff709d;}.cls-3{opacity:0.85;}.cls-4{mix-blend-mode:soft-light;}.cls-5{fill:#fcf7eb;}.cls-6{fill:#fc47a6;}.cls-7{fill:#ffaec5;}.cls-8{fill:#ffce00;}.cls-9{fill:#00eef0;}.cls-10{fill:red;}.cls-11{fill:lime;}.cls-12{fill:#f7951d;}.cls-13{fill:#fff6a1;}.cls-14{fill:#e0116c;}.cls-15{fill:#d13f44;}.cls-16{fill:#008b00;}.cls-17{fill:#00c300;}.cls-18{fill:#f07493;}.cls-19{fill:#00b2b6;}.cls-20{fill:#491305;}.cls-21{fill:#ad8353;}.cls-22{fill:#c69c6d;}.cls-23{fill:#d8ac80;}.cls-24{fill:#966432;}.cls-25{fill:#6bd6fc;}.cls-26{fill:#3fcaef;}.cls-27{fill:#1d414f;}</style></defs><title>Heaven&amp;apos;s Donuts svg</title><g class="cls-1"><g id="BACKGROUND"><rect class="cls-2" width="500" height="500"/></g><g id="OBJECTS"><g class="cls-3"><g class="cls-4"><path d="M452.74,297.45l-.58.83c-.06.08-.12.15-.17.23-.38.53-.76,1.07-1.17,1.59s-1,1.29-1.58,1.91l-.64.7c-.44.46-.88.91-1.33,1.35s-.91.88-1.39,1.3-.95.83-1.44,1.23-1,.8-1.49,1.18l-.09.07c-.46.34-.93.68-1.41,1l0,0-1,.67q-.42.29-.84.54c-.45.29-.91.57-1.37.84-.76.44-1.53.86-2.31,1.27a44.32,44.32,0,0,1-18.24,5c-.82,0-1.63,0-2.45,0-.38,0-.75,0-1.12-.06-.74-.05-1.49-.13-2.23-.23,1.46,6.88-.63,16.27-9.76,22.81-7.15,5.12-26.48,1.84-28.65-4.69,3.86,11.6-5.55,25.59-17.49,26,11.56,26.38-3.69,52.82-29.64,60.6-12.77,3.83-26.41,3-39.17-.53-5.7-1.57-12.8-3.35-17.45-7.23-2.27-1.9-3.6-4.91-5.82-6.53a18,18,0,0,1-3.66,7.48,16.63,16.63,0,0,1-6.33,4.14c-3.77,1.45-8.88,0-12.21-2.1-2.71-1.75-4.82-4.71-6.57-7.39-13.85,17-39.94,22-59.66,12.78-21.75-10.2-26.64-30.94-30.78-52.8-6.78,3.74-16,.25-19.88-6.42A18,18,0,0,1,127,342.51c-9.51,2.81-20.37,2.36-28.61-3.31-8.65-6-13.43-18.77-9.24-28.7-13.17,2-28.75-7.55-37.59-17a56.58,56.58,0,0,1-15.25-37.81,57.84,57.84,0,0,1,11.74-36.12c5.46-7.18,12.89-13.15,21.38-16-4.35-1.07-4.33-8.68-3-11.95,1.59-3.93,5-6.06,8.92-6.94-3.54-1.54-4.17-8.29-4.1-11.67a12.44,12.44,0,0,1,1.55-6.18c1.76-2.89,5.13-4.45,8.45-4.77a21.63,21.63,0,0,1,6,.37c1.31.23,2.61.55,3.9.87a87,87,0,0,1-7.58-15.66c-8-23.85,11.85-46.23,34-50.37,9.93-1.86,19.26.49,29,1.84,2.82.39,2.49.14,2.68-2.66a27.78,27.78,0,0,1,.79-5.44,16.1,16.1,0,0,1,5.57-8.71c6-4.6,17.86-3.87,21.28,3.72-.81-13.64,10.13-26.65,23.28-28.86a30.21,30.21,0,0,1,22.37,5.63c3.74,2.68,6.84,7.11,9.5,10.5A2,2,0,0,0,233,71.6c.63-4.9,4.27-9.44,9-10.38s10.05,2.31,10.93,7.16c9.7-13,27.79-18.63,42.83-13.33C302.47,57.4,308,59.9,313,65c5.28,5.39,7.12,11.64,8.71,19,.2-3.16,4.48-4.75,7.07-3,3.34,2.2,2.66,6.34,2.82,9.76a17.45,17.45,0,0,1,8.29-9.22,27.36,27.36,0,0,1,12.19-2.92A13.09,13.09,0,0,1,359.22,80a11.78,11.78,0,0,1,3.38,3.26c2.78,3.8,4.33,8.76,3.3,13.41a14.46,14.46,0,0,1,5.5-4c6.29-2.21,10.88,6.16,8.31,11.62C394,98,411.79,107.8,417.5,122.64a41.36,41.36,0,0,1,1.58,22.85c-1.65,8.29-5.91,14.39-9.6,21.69,3.34,1.62,6.51,2.42,8.88,5.61,2.25,3,3.1,6.88,3.53,10.54.33,2.83.48,5.81-.75,8.42-1.74,3.66-4.49,6,1.15,6.4a38.81,38.81,0,0,1,11.62,2.2A41.2,41.2,0,0,1,452.44,215c5.63,7.91,8.74,17.35,10.16,27.07a97,97,0,0,1,.94,11.26l0,1.17C463.79,269.52,460.8,284.92,452.74,297.45Z"/><path d="M460.52,172.22a10.42,10.42,0,0,1-3,4.36c-3,2.84-7.05,4.72-11,4.13a9.82,9.82,0,0,1-3.61-1.29,17.14,17.14,0,0,1-5-4.79,3.38,3.38,0,0,1-4,1.43,7.63,7.63,0,0,1-3.59-2.75,10.72,10.72,0,0,1-2-3.34,3.9,3.9,0,0,1,.11-2.95c.77-1.66,2.71-2.8,4.58-3.54a14.84,14.84,0,0,1-3-7,4.86,4.86,0,0,1,.05-2.08,4.45,4.45,0,0,1,1.12-1.76c1.83-1.92,5.16-3.22,7.72-2,3.15,1.52,4.54,5.88,5.16,9a9.72,9.72,0,0,1,10.25-.58,11.73,11.73,0,0,1,4.73,4.79,13.26,13.26,0,0,1,1.4,3.75A9.42,9.42,0,0,1,460.52,172.22Z"/><path d="M414.39,383.58a4.44,4.44,0,0,1-4.83,1.6,6.88,6.88,0,0,1,3.72,6.31,10.84,10.84,0,0,1-12.54,9.9,22.09,22.09,0,0,1-3.23-1,12,12,0,0,1-4.26-2.65c-2.12-2.36-1.14-5.68,1-7.62-4.35,3.32-11.6,4.21-15.81.24a11.79,11.79,0,0,1-1.41-1.59,15.1,15.1,0,0,1-2.76-9.49,16.35,16.35,0,0,1,4.56-11,11.18,11.18,0,0,1,8.41-3.48,8.08,8.08,0,0,1,4.39,1.7,17.84,17.84,0,0,1,2.88,2.95c.06-.87-.23-1.55.2-2.43a5,5,0,0,1,1.87-1.91c6.11-3.91,15-.42,14.88,7.35A6.17,6.17,0,0,1,410.2,376a2,2,0,0,1,1.92-.18,3.91,3.91,0,0,1,1.56,1.3,8,8,0,0,1,1.25,2.34h0A4.49,4.49,0,0,1,414.39,383.58Z"/><path d="M434.17,349c3.46,1,2.15,5.68-.14,7.27-1.69,1.18-4.45,1.87-5.73-.32-.6-1-.33-2.4-.39-3.54-5.38.26-6.69-3.62-5.75-7.15,1.09-4.11,5.23-7.73,9.53-3.75,1.53-1.87,5-2.22,6.19-.15a4.61,4.61,0,0,1,.3,2.82C437.81,346.65,436.22,349.38,434.17,349Z"/><path d="M54.19,190.09a4.67,4.67,0,0,1-3.12,3,4.17,4.17,0,0,1-2.58-.5,16.41,16.41,0,0,0-.36,2.3,4.65,4.65,0,0,1-.94,2.83,7.63,7.63,0,0,1-3.43,3,6.49,6.49,0,0,1-4.58-.2c-2.26-.91-3.93-2.79-3.77-5.15a5.16,5.16,0,0,1,.55-2,8.48,8.48,0,0,1,3.09-3.06,9.29,9.29,0,0,1-1.15-.54,3.31,3.31,0,0,1-1-1.33,4.65,4.65,0,0,1,1.62-5c1.63-1.46,4.34-.94,5.71.54a4.92,4.92,0,0,1,2-2.3c2.23-1.31,4.55.05,6.13,1.61l.41.43A6.42,6.42,0,0,1,54.19,190.09Z"/><path d="M61.12,138.11a8.09,8.09,0,0,1,1.87,2c1.22,1.77.83,5.33-.05,7.19a8.66,8.66,0,0,1-5.12,4.37c-2.16.74-4.68.71-6.37-.95-1.36-1.32-2.53-3.65-1.7-5.54l.11-.23c-.29.54-3.84-.83-4.28-1a9.7,9.7,0,0,1-3.41-2.72,9.07,9.07,0,0,1-1.86-4.51,8.31,8.31,0,0,1,.93-5c1.12-2.07,3.25-4.41,5.59-5a7.42,7.42,0,0,1,3.31-.22,3.39,3.39,0,0,1,2.34,1.31c.08-.69-.33-1.35-.37-2a4.84,4.84,0,0,1,.55-2.45,4.77,4.77,0,0,1,3.76-2.76c4.08-.23,7.84,3.25,4.61,7,.43-.5,3.17,1.53,3.46,1.89a2.89,2.89,0,0,1,.54,1,6.47,6.47,0,0,1,.14,2.68C65,135.57,64,137.93,61.12,138.11Z"/><path d="M101.94,371.05a8.87,8.87,0,0,1-2.53,4.39c-.4.39-3.68,2.82-4.15,2.5,3.38,2.26,4.38,4.81,1.57,8.3-2.33,2.89-6.92,5.32-10.11,3.81a5.35,5.35,0,0,1-2.66-3.15c-4.83,3.4-12.76,5.65-18.73,3.5-2.9-1-4.23-3.19-5.21-5.91a9.56,9.56,0,0,1,.18-7.59,10.21,10.21,0,0,1,.76-1.35,8.75,8.75,0,0,1,3.71-2.87c.7-.32,5.07-2.17,5.6-1.63C66.5,367.11,59,358,68.88,355.33c8.88-2.39,14.68,4.56,13.73,10.82,3.89-5.78,15.21-4.24,18.5.87A5.45,5.45,0,0,1,101.94,371.05Z"/><path d="M414.39,383.58a4.44,4.44,0,0,1-4.83,1.6,6.88,6.88,0,0,1,3.72,6.31,10.84,10.84,0,0,1-12.54,9.9,22.09,22.09,0,0,1-3.23-1,12,12,0,0,1-4.26-2.65c-2.12-2.36-1.14-5.68,1-7.62-4.35,3.32-11.6,4.21-15.81.24a11.79,11.79,0,0,1-1.41-1.59,15.1,15.1,0,0,1-2.76-9.49,18.57,18.57,0,0,0,2.46,4.3c2.35,2.93,6.71,3.55,10.14,4.08s9.08,1.58,11.49-1.65c-.41,1.69-2,3.23-1.75,5.11.59,4.16,7.3,3.75,9.77,2,2.07-1.44,3.72-4.42,2.5-6.79-.53-1-1.9-2.29-1.69-3.54,2.53.63,6.53-.82,7.77-3.36A4.49,4.49,0,0,1,414.39,383.58Z"/><path d="M422.2,342.34v-.14C422.35,342.32,422.31,342.36,422.2,342.34Z"/><path d="M434,356.29c-1.69,1.18-4.45,1.87-5.73-.32-.6-1-.33-2.4-.39-3.54-5.38.26-6.69-3.62-5.75-7.15a5.79,5.79,0,0,0,1,.9c1.74,1.3,3.56,1.18,5.59,1.28.16,1.24-.88,3.67,1,4.06s2.07-2.54,2.05-3.79a18.72,18.72,0,0,0,2.73-.94,33.55,33.55,0,0,0,3.63-2.59c-.37,2.45-2,5.18-4,4.82C437.63,350,436.32,354.7,434,356.29Z"/><path d="M101.94,371.05a8.87,8.87,0,0,1-2.53,4.39c-.4.39-3.68,2.82-4.15,2.5,3.38,2.26,4.38,4.81,1.57,8.3-2.33,2.89-6.92,5.32-10.11,3.81a5.35,5.35,0,0,1-2.66-3.15c-4.83,3.4-12.76,5.65-18.73,3.5-2.9-1-4.23-3.19-5.21-5.91a9.56,9.56,0,0,1,.18-7.59,11.24,11.24,0,0,0,7,7.72c6.28,2.11,12.16-.7,17.47-3.4.08,3,4,2.3,5.57.86a5.46,5.46,0,0,0,1.06-7.18,11.84,11.84,0,0,0,8.46-5.21,16.05,16.05,0,0,0,1.27-2.67A5.45,5.45,0,0,1,101.94,371.05Z"/><path d="M460.52,172.22a10.42,10.42,0,0,1-3,4.36c-3,2.84-7.05,4.72-11,4.13a9.82,9.82,0,0,1-3.61-1.29,17.14,17.14,0,0,1-5-4.79,3.38,3.38,0,0,1-4,1.43,7.63,7.63,0,0,1-3.59-2.75,10.72,10.72,0,0,1-2-3.34,3.9,3.9,0,0,1,.11-2.95c.21,1.33,1.1,2.61,2.59,4.11a3.73,3.73,0,0,0,4.8.65c.54-.32.8-1,1.29-1.29,1.35-.79.27-.59,1.55.17,2.54,1.49,3.61,2.71,6.9,3,5.17.46,9.84-1.39,12.18-6.17.48-1,.86-2.34,1.32-3.59a13.26,13.26,0,0,1,1.4,3.75A9.42,9.42,0,0,1,460.52,172.22Z"/><path d="M54.19,190.09a4.67,4.67,0,0,1-3.12,3,4.17,4.17,0,0,1-2.58-.5,16.41,16.41,0,0,0-.36,2.3,4.65,4.65,0,0,1-.94,2.83,7.63,7.63,0,0,1-3.43,3,6.49,6.49,0,0,1-4.58-.2c-2.26-.91-3.93-2.79-3.77-5.15a5.16,5.16,0,0,1,.55-2,3.75,3.75,0,0,0,.37.58,7.24,7.24,0,0,0,5.06,2.08c2.69-.06,5.08-3.1,5-5.71a4,4,0,0,0,4.69-.09,4.78,4.78,0,0,0,1.41-2.75c.23-1.18-.61-3.16-.22-4.17l.41.43A6.42,6.42,0,0,1,54.19,190.09Z"/><path d="M61.12,138.11a8.09,8.09,0,0,1,1.87,2c1.22,1.77.83,5.33-.05,7.19a8.66,8.66,0,0,1-5.12,4.37c-2.16.74-4.68.71-6.37-.95-1.36-1.32-2.53-3.65-1.7-5.54l.11-.23c-.29.54-3.84-.83-4.28-1a9.7,9.7,0,0,1-3.41-2.72,9.07,9.07,0,0,1-1.86-4.51c1.82,2.45,5.42,3.27,8.28,3.34,2.14.06,7.25-1.17,6.09-4.2,2-.11,3.59.34,5.51-.54,2.47-1.13,3.52-2.93,4.84-4.9a6.47,6.47,0,0,1,.14,2.68C65,135.57,64,137.93,61.12,138.11Z"/><path d="M436.62,119.53c-.13-7.78-2.3-14-7.52-19.86a27.77,27.77,0,0,0-17.58-9.37c-5.76-.74-14.32-1.35-18.81,3.06-.51.5-1.13,1.85-.4,2.47,1.62,1.36,3.18,1.42,5.23,1.72a29.71,29.71,0,0,1,8.21,2.41,48.4,48.4,0,0,1,13.42,9.67c3.67,3.74,6.39,8.73,8.8,13.35a29.34,29.34,0,0,1,2.31,6.23c.76,2.91.1,5.47.44,8.38.14,1.26,1.61,1,2.14.16C436,132.93,436.71,125.13,436.62,119.53Z"/><path d="M165.35,67.22c-5.55-8.17-17.48-6.11-23.38.34-5.14,5.63-8.89,16.54-3,22.71.3.32.65-.24.68-.5.63-6.65,2.19-13,8.2-16.6a36.48,36.48,0,0,1,8.58-3.79c2.77-.75,5.62-.58,8.45-.94C165.43,68.37,165.6,67.59,165.35,67.22Z"/><path d="M76.75,317.93c-2.49-2-5.31-2-8.31-2.88a50.39,50.39,0,0,1-9.94-4.33,49.64,49.64,0,0,1-15.88-14c-4.68-6.35-7.39-14.12-8.94-21.78-.76-3.72-1.38-7.52-1.79-11.29-.45-4.26,0-8.53-.47-12.78-.11-1-1.28-.49-1.51.15-3,8.4-3.81,18.56-3.27,27.43.57,9.49,3,19.07,8.14,27.15a40.18,40.18,0,0,0,18.64,16c6.86,2.76,17.24,3.95,23-1.61C76.84,319.58,77.37,318.43,76.75,317.93Z"/><path d="M475.71,263.36c-.68-1.57-2.22.68-2.13,1.58,1.32,13-2.21,27.8-9.74,38.59a61.21,61.21,0,0,1-11.32,12.14c-4.67,3.82-10.13,6.47-14.77,10.3-.13.11-.26.49,0,.57,5.68,2,12.07-.74,17.11-3.39a45.26,45.26,0,0,0,16.47-14.93C480.54,294.39,482.38,278.69,475.71,263.36Z"/><path d="M453.27,108.58c-2-4.92-8.11-10.13-13.63-7.29a1.56,1.56,0,0,0-.67,1.85c1.36,3.71,4.89,6.5,6.38,10.32s1.3,7.77,1.7,11.72a1.06,1.06,0,0,0,1.65.76C454.26,123,455.42,113.85,453.27,108.58Z"/><path d="M132.32,77.36c.65-2.86,2.22-5.09,2.47-8.13a1.55,1.55,0,0,0-.75-1.56c-8.77-3.8-14.22,22-1.53,20.86a.23.23,0,0,0,.19-.27C132.48,84.69,131.52,80.92,132.32,77.36Z"/><path d="M77.31,327.21c-8.76,1.58-17.14,4.49-26.05,1.65a29.76,29.76,0,0,1-10.09-5.76c-2.46-2.11-4.12-5.19-7-6.83-.23-.13-.44.21-.49.37-3.22,9.47,5.4,19.11,13.39,22.88,10.33,4.86,23.38,2.33,31.39-5.66C80.22,332.12,81.42,326.47,77.31,327.21Z"/><path d="M476.84,317.3a1.11,1.11,0,0,0-1.72-.8c-4.86,3-7.87,8.52-12.81,11.65-6.09,3.87-13.1,4.25-19.41,7.28a.87.87,0,0,0-.32,1.22c5.38,6.2,16.64,3.13,22.57-.62C470.69,332.53,478.53,324.63,476.84,317.3Z"/><path d="M469.14,205.21c-3-3.08-7.24-4.74-11.15-6.41s-7.8-3.34-12-2.38a.43.43,0,0,0-.26.55c1.39,2.61,3.46,4,5.82,5.72a32.64,32.64,0,0,1,8.91,8.89,45,45,0,0,1,4.41,8.6c.89,2.36,1.69,5.07,3.43,6.95a1.72,1.72,0,0,0,2.41-.22C477,221.1,474.54,210.71,469.14,205.21Z"/><path d="M322.87,47.93c-5.48-4.35-14.57-5.93-20-.63-.12.12-.26.45-.09.59,4.13,3.45,10.27,4.07,14.62,7.58a31.75,31.75,0,0,1,5.8,6.8c1.46,2.12,2.12,4.56,3.81,6.51.65.76,1.72-.2,2-.82C332,60.91,328.63,52.5,322.87,47.93Z"/><path d="M184.78,435.1c-4.48-2.91-10.57-2.57-15.43-5.05-5.17-2.63-9.71-6.85-13.8-10.92-7.64-7.6-12.85-20.1-12.76-30.92,0-1.52-1.65-1.31-2.13-.14-5.67,13.76-4.23,28.56,5.41,40.25,4.75,5.75,10.6,8.66,17.79,10.29,6.41,1.46,14.8,2.87,20.55-1.11C185.13,437,185.69,435.69,184.78,435.1Z"/></g><path class="cls-5" d="M448.74,293.45l-.58.83c-.06.08-.12.15-.17.23-.38.53-.76,1.07-1.17,1.59s-1,1.29-1.58,1.91l-.64.7c-.44.46-.88.91-1.33,1.35s-.91.88-1.39,1.3-.95.83-1.44,1.23-1,.8-1.49,1.18l-.09.07c-.46.34-.93.68-1.41,1l0,0-1,.67q-.42.29-.84.54c-.45.29-.91.57-1.37.84-.76.44-1.53.86-2.31,1.27a44.32,44.32,0,0,1-18.24,5c-.82,0-1.63,0-2.45,0-.38,0-.75,0-1.12-.06-.74-.05-1.49-.13-2.23-.23,1.46,6.88-.63,16.27-9.76,22.81-7.15,5.12-26.48,1.84-28.65-4.69,3.86,11.6-5.55,25.59-17.49,26,11.56,26.38-3.69,52.82-29.64,60.6-12.77,3.83-26.41,3-39.17-.53-5.7-1.57-12.8-3.35-17.45-7.23-2.27-1.9-3.6-4.91-5.82-6.53a18,18,0,0,1-3.66,7.48,16.63,16.63,0,0,1-6.33,4.14c-3.77,1.45-8.88,0-12.21-2.1-2.71-1.75-4.82-4.71-6.57-7.39-13.85,17-39.94,22-59.66,12.78-21.75-10.2-26.64-30.94-30.78-52.8-6.78,3.74-16,.25-19.88-6.42A18,18,0,0,1,123,338.51c-9.51,2.81-20.37,2.36-28.61-3.31-8.65-6-13.43-18.77-9.24-28.7-13.17,2-28.75-7.55-37.59-17a56.58,56.58,0,0,1-15.25-37.81,57.84,57.84,0,0,1,11.74-36.12c5.46-7.18,12.89-13.15,21.38-16-4.35-1.07-4.33-8.68-3-11.95,1.59-3.93,5-6.06,8.92-6.94-3.54-1.54-4.17-8.29-4.1-11.67a12.44,12.44,0,0,1,1.55-6.18c1.76-2.89,5.13-4.45,8.45-4.77a21.63,21.63,0,0,1,6,.37c1.31.23,2.61.55,3.9.87a87,87,0,0,1-7.58-15.66c-8-23.85,11.85-46.23,34-50.37,9.93-1.86,19.26.49,29,1.84,2.82.39,2.49.14,2.68-2.66a27.78,27.78,0,0,1,.79-5.44,16.1,16.1,0,0,1,5.57-8.71c6-4.6,17.86-3.87,21.28,3.72-.81-13.64,10.13-26.65,23.28-28.86a30.21,30.21,0,0,1,22.37,5.63c3.74,2.68,6.84,7.11,9.5,10.5A2,2,0,0,0,229,67.6c.63-4.9,4.27-9.44,9-10.38s10.05,2.31,10.93,7.16c9.7-13,27.79-18.63,42.83-13.33C298.47,53.4,304,55.9,309,61c5.28,5.39,7.12,11.64,8.71,19,.2-3.16,4.48-4.75,7.07-3,3.34,2.2,2.66,6.34,2.82,9.76a17.45,17.45,0,0,1,8.29-9.22,27.36,27.36,0,0,1,12.19-2.92A13.09,13.09,0,0,1,355.22,76a11.78,11.78,0,0,1,3.38,3.26c2.78,3.8,4.33,8.76,3.3,13.41a14.46,14.46,0,0,1,5.5-4c6.29-2.21,10.88,6.16,8.31,11.62C390,94,407.79,103.8,413.5,118.64a41.36,41.36,0,0,1,1.58,22.85c-1.65,8.29-5.91,14.39-9.6,21.69,3.34,1.62,6.51,2.42,8.88,5.61,2.25,3,3.1,6.88,3.53,10.54.33,2.83.48,5.81-.75,8.42-1.74,3.66-4.49,6,1.15,6.4a38.81,38.81,0,0,1,11.62,2.2A41.2,41.2,0,0,1,448.44,211c5.63,7.91,8.74,17.35,10.16,27.07a97,97,0,0,1,.94,11.26l0,1.17C459.79,265.52,456.8,280.92,448.74,293.45Z"/><path class="cls-5" d="M456.52,168.22a10.42,10.42,0,0,1-3,4.36c-3,2.84-7.05,4.72-11,4.13a9.82,9.82,0,0,1-3.61-1.29,17.14,17.14,0,0,1-5-4.79,3.38,3.38,0,0,1-4,1.43,7.63,7.63,0,0,1-3.59-2.75,10.72,10.72,0,0,1-2-3.34,3.9,3.9,0,0,1,.11-2.95c.77-1.66,2.71-2.8,4.58-3.54a14.84,14.84,0,0,1-3-7,4.86,4.86,0,0,1,.05-2.08,4.45,4.45,0,0,1,1.12-1.76c1.83-1.92,5.16-3.22,7.72-2,3.15,1.52,4.54,5.88,5.16,9a9.72,9.72,0,0,1,10.25-.58,11.73,11.73,0,0,1,4.73,4.79,13.26,13.26,0,0,1,1.4,3.75A9.42,9.42,0,0,1,456.52,168.22Z"/><path class="cls-5" d="M410.39,379.58a4.44,4.44,0,0,1-4.83,1.6,6.88,6.88,0,0,1,3.72,6.31,10.84,10.84,0,0,1-12.54,9.9,22.09,22.09,0,0,1-3.23-1,12,12,0,0,1-4.26-2.65c-2.12-2.36-1.14-5.68,1-7.62-4.35,3.32-11.6,4.21-15.81.24a11.79,11.79,0,0,1-1.41-1.59,15.1,15.1,0,0,1-2.76-9.49,16.35,16.35,0,0,1,4.56-11,11.18,11.18,0,0,1,8.41-3.48,8.08,8.08,0,0,1,4.39,1.7,17.84,17.84,0,0,1,2.88,2.95c.06-.87-.23-1.55.2-2.43a5,5,0,0,1,1.87-1.91c6.11-3.91,15-.42,14.88,7.35A6.17,6.17,0,0,1,406.2,372a2,2,0,0,1,1.92-.18,3.91,3.91,0,0,1,1.56,1.3,8,8,0,0,1,1.25,2.34h0A4.49,4.49,0,0,1,410.39,379.58Z"/><path class="cls-5" d="M430.17,345c3.46,1,2.15,5.68-.14,7.27-1.69,1.18-4.45,1.87-5.73-.32-.6-1-.33-2.4-.39-3.54-5.38.26-6.69-3.62-5.75-7.15,1.09-4.11,5.23-7.73,9.53-3.75,1.53-1.87,5-2.22,6.19-.15a4.61,4.61,0,0,1,.3,2.82C433.81,342.65,432.22,345.38,430.17,345Z"/><path class="cls-5" d="M50.19,186.09a4.67,4.67,0,0,1-3.12,3,4.17,4.17,0,0,1-2.58-.5,16.41,16.41,0,0,0-.36,2.3,4.65,4.65,0,0,1-.94,2.83,7.63,7.63,0,0,1-3.43,3,6.49,6.49,0,0,1-4.58-.2c-2.26-.91-3.93-2.79-3.77-5.15a5.16,5.16,0,0,1,.55-2,8.48,8.48,0,0,1,3.09-3.06,9.29,9.29,0,0,1-1.15-.54,3.31,3.31,0,0,1-1-1.33,4.65,4.65,0,0,1,1.62-5c1.63-1.46,4.34-.94,5.71.54a4.92,4.92,0,0,1,2-2.3c2.23-1.31,4.55.05,6.13,1.61l.41.43A6.42,6.42,0,0,1,50.19,186.09Z"/><path class="cls-5" d="M57.12,134.11a8.09,8.09,0,0,1,1.87,2c1.22,1.77.83,5.33-.05,7.19a8.66,8.66,0,0,1-5.12,4.37c-2.16.74-4.68.71-6.37-.95-1.36-1.32-2.53-3.65-1.7-5.54l.11-.23c-.29.54-3.84-.83-4.28-1a9.7,9.7,0,0,1-3.41-2.72,9.07,9.07,0,0,1-1.86-4.51,8.31,8.31,0,0,1,.93-5c1.12-2.07,3.25-4.41,5.59-5a7.42,7.42,0,0,1,3.31-.22,3.39,3.39,0,0,1,2.34,1.31c.08-.69-.33-1.35-.37-2a4.84,4.84,0,0,1,.55-2.45,4.77,4.77,0,0,1,3.76-2.76c4.08-.23,7.84,3.25,4.61,7,.43-.5,3.17,1.53,3.46,1.89a2.89,2.89,0,0,1,.54,1,6.47,6.47,0,0,1,.14,2.68C61,131.57,60,133.93,57.12,134.11Z"/><path class="cls-5" d="M97.94,367.05a8.87,8.87,0,0,1-2.53,4.39c-.4.39-3.68,2.82-4.15,2.5,3.38,2.26,4.38,4.81,1.57,8.3-2.33,2.89-6.92,5.32-10.11,3.81a5.35,5.35,0,0,1-2.66-3.15c-4.83,3.4-12.76,5.65-18.73,3.5-2.9-1-4.23-3.19-5.21-5.91a9.56,9.56,0,0,1,.18-7.59,10.21,10.21,0,0,1,.76-1.35,8.75,8.75,0,0,1,3.71-2.87c.7-.32,5.07-2.17,5.6-1.63C62.5,363.11,55,354,64.88,351.33c8.88-2.39,14.68,4.56,13.73,10.82,3.89-5.78,15.21-4.24,18.5.87A5.45,5.45,0,0,1,97.94,367.05Z"/><path class="cls-5" d="M410.39,379.58a4.44,4.44,0,0,1-4.83,1.6,6.88,6.88,0,0,1,3.72,6.31,10.84,10.84,0,0,1-12.54,9.9,22.09,22.09,0,0,1-3.23-1,12,12,0,0,1-4.26-2.65c-2.12-2.36-1.14-5.68,1-7.62-4.35,3.32-11.6,4.21-15.81.24a11.79,11.79,0,0,1-1.41-1.59,15.1,15.1,0,0,1-2.76-9.49,18.57,18.57,0,0,0,2.46,4.3c2.35,2.93,6.71,3.55,10.14,4.08s9.08,1.58,11.49-1.65c-.41,1.69-2,3.23-1.75,5.11.59,4.16,7.3,3.75,9.77,2,2.07-1.44,3.72-4.42,2.5-6.79-.53-1-1.9-2.29-1.69-3.54,2.53.63,6.53-.82,7.77-3.36A4.49,4.49,0,0,1,410.39,379.58Z"/><path class="cls-5" d="M418.2,338.34v-.14C418.35,338.32,418.31,338.36,418.2,338.34Z"/><path class="cls-5" d="M430,352.29c-1.69,1.18-4.45,1.87-5.73-.32-.6-1-.33-2.4-.39-3.54-5.38.26-6.69-3.62-5.75-7.15a5.79,5.79,0,0,0,1,.9c1.74,1.3,3.56,1.18,5.59,1.28.16,1.24-.88,3.67,1,4.06s2.07-2.54,2.05-3.79a18.72,18.72,0,0,0,2.73-.94,33.55,33.55,0,0,0,3.63-2.59c-.37,2.45-2,5.18-4,4.82C433.63,346,432.32,350.7,430,352.29Z"/><path class="cls-5" d="M97.94,367.05a8.87,8.87,0,0,1-2.53,4.39c-.4.39-3.68,2.82-4.15,2.5,3.38,2.26,4.38,4.81,1.57,8.3-2.33,2.89-6.92,5.32-10.11,3.81a5.35,5.35,0,0,1-2.66-3.15c-4.83,3.4-12.76,5.65-18.73,3.5-2.9-1-4.23-3.19-5.21-5.91a9.56,9.56,0,0,1,.18-7.59,11.24,11.24,0,0,0,7,7.72c6.28,2.11,12.16-.7,17.47-3.4.08,3,4,2.3,5.57.86a5.46,5.46,0,0,0,1.06-7.18,11.84,11.84,0,0,0,8.46-5.21A16.05,16.05,0,0,0,97.11,363,5.45,5.45,0,0,1,97.94,367.05Z"/><path class="cls-5" d="M456.52,168.22a10.42,10.42,0,0,1-3,4.36c-3,2.84-7.05,4.72-11,4.13a9.82,9.82,0,0,1-3.61-1.29,17.14,17.14,0,0,1-5-4.79,3.38,3.38,0,0,1-4,1.43,7.63,7.63,0,0,1-3.59-2.75,10.72,10.72,0,0,1-2-3.34,3.9,3.9,0,0,1,.11-2.95c.21,1.33,1.1,2.61,2.59,4.11a3.73,3.73,0,0,0,4.8.65c.54-.32.8-1,1.29-1.29,1.35-.79.27-.59,1.55.17,2.54,1.49,3.61,2.71,6.9,3,5.17.46,9.84-1.39,12.18-6.17.48-1,.86-2.34,1.32-3.59a13.26,13.26,0,0,1,1.4,3.75A9.42,9.42,0,0,1,456.52,168.22Z"/><path class="cls-5" d="M50.19,186.09a4.67,4.67,0,0,1-3.12,3,4.17,4.17,0,0,1-2.58-.5,16.41,16.41,0,0,0-.36,2.3,4.65,4.65,0,0,1-.94,2.83,7.63,7.63,0,0,1-3.43,3,6.49,6.49,0,0,1-4.58-.2c-2.26-.91-3.93-2.79-3.77-5.15a5.16,5.16,0,0,1,.55-2,3.75,3.75,0,0,0,.37.58,7.24,7.24,0,0,0,5.06,2.08c2.69-.06,5.08-3.1,5-5.71a4,4,0,0,0,4.69-.09,4.78,4.78,0,0,0,1.41-2.75c.23-1.18-.61-3.16-.22-4.17l.41.43A6.42,6.42,0,0,1,50.19,186.09Z"/><path class="cls-5" d="M57.12,134.11a8.09,8.09,0,0,1,1.87,2c1.22,1.77.83,5.33-.05,7.19a8.66,8.66,0,0,1-5.12,4.37c-2.16.74-4.68.71-6.37-.95-1.36-1.32-2.53-3.65-1.7-5.54l.11-.23c-.29.54-3.84-.83-4.28-1a9.7,9.7,0,0,1-3.41-2.72,9.07,9.07,0,0,1-1.86-4.51c1.82,2.45,5.42,3.27,8.28,3.34,2.14.06,7.25-1.17,6.09-4.2,2-.11,3.59.34,5.51-.54,2.47-1.13,3.52-2.93,4.84-4.9a6.47,6.47,0,0,1,.14,2.68C61,131.57,60,133.93,57.12,134.11Z"/><path class="cls-5" d="M432.62,115.53c-.13-7.78-2.3-14-7.52-19.86a27.77,27.77,0,0,0-17.58-9.37c-5.76-.74-14.32-1.35-18.81,3.06-.51.5-1.13,1.85-.4,2.47,1.62,1.36,3.18,1.42,5.23,1.72A29.71,29.71,0,0,1,401.75,96a48.4,48.4,0,0,1,13.42,9.67c3.67,3.74,6.39,8.73,8.8,13.35a29.34,29.34,0,0,1,2.31,6.23c.76,2.91.1,5.47.44,8.38.14,1.26,1.61,1,2.14.16C432,128.93,432.71,121.13,432.62,115.53Z"/><path class="cls-5" d="M161.35,63.22c-5.55-8.17-17.48-6.11-23.38.34-5.14,5.63-8.89,16.54-3,22.71.3.32.65-.24.68-.5.63-6.65,2.19-13,8.2-16.6a36.48,36.48,0,0,1,8.58-3.79c2.77-.75,5.62-.58,8.45-.94C161.43,64.37,161.6,63.59,161.35,63.22Z"/><path class="cls-5" d="M72.75,313.93c-2.49-2-5.31-2-8.31-2.88a50.39,50.39,0,0,1-9.94-4.33,49.64,49.64,0,0,1-15.88-14c-4.68-6.35-7.39-14.12-8.94-21.78-.76-3.72-1.38-7.52-1.79-11.29-.45-4.26,0-8.53-.47-12.78-.11-1-1.28-.49-1.51.15-3,8.4-3.81,18.56-3.27,27.43.57,9.49,3,19.07,8.14,27.15a40.18,40.18,0,0,0,18.64,16c6.86,2.76,17.24,3.95,23-1.61C72.84,315.58,73.37,314.43,72.75,313.93Z"/><path class="cls-5" d="M471.71,259.36c-.68-1.57-2.22.68-2.13,1.58,1.32,13-2.21,27.8-9.74,38.59a61.21,61.21,0,0,1-11.32,12.14c-4.67,3.82-10.13,6.47-14.77,10.3-.13.11-.26.49,0,.57,5.68,2,12.07-.74,17.11-3.39a45.26,45.26,0,0,0,16.47-14.93C476.54,290.39,478.38,274.69,471.71,259.36Z"/><path class="cls-5" d="M449.27,104.58c-2-4.92-8.11-10.13-13.63-7.29a1.56,1.56,0,0,0-.67,1.85c1.36,3.71,4.89,6.5,6.38,10.32s1.3,7.77,1.7,11.72a1.06,1.06,0,0,0,1.65.76C450.26,119,451.42,109.85,449.27,104.58Z"/><path class="cls-5" d="M128.32,73.36c.65-2.86,2.22-5.09,2.47-8.13a1.55,1.55,0,0,0-.75-1.56c-8.77-3.8-14.22,22-1.53,20.86a.23.23,0,0,0,.19-.27C128.48,80.69,127.52,76.92,128.32,73.36Z"/><path class="cls-5" d="M73.31,323.21c-8.76,1.58-17.14,4.49-26.05,1.65a29.76,29.76,0,0,1-10.09-5.76c-2.46-2.11-4.12-5.19-7-6.83-.23-.13-.44.21-.49.37-3.22,9.47,5.4,19.11,13.39,22.88,10.33,4.86,23.38,2.33,31.39-5.66C76.22,328.12,77.42,322.47,73.31,323.21Z"/><path class="cls-5" d="M472.84,313.3a1.11,1.11,0,0,0-1.72-.8c-4.86,3-7.87,8.52-12.81,11.65-6.09,3.87-13.1,4.25-19.41,7.28a.87.87,0,0,0-.32,1.22c5.38,6.2,16.64,3.13,22.57-.62C466.69,328.53,474.53,320.63,472.84,313.3Z"/><path class="cls-5" d="M465.14,201.21c-3-3.08-7.24-4.74-11.15-6.41s-7.8-3.34-12-2.38a.43.43,0,0,0-.26.55c1.39,2.61,3.46,4,5.82,5.72a32.64,32.64,0,0,1,8.91,8.89,45,45,0,0,1,4.41,8.6c.89,2.36,1.69,5.07,3.43,6.95a1.72,1.72,0,0,0,2.41-.22C473,217.1,470.54,206.71,465.14,201.21Z"/><path class="cls-5" d="M318.87,43.93c-5.48-4.35-14.57-5.93-20-.63-.12.12-.26.45-.09.59,4.13,3.45,10.27,4.07,14.62,7.58a31.75,31.75,0,0,1,5.8,6.8c1.46,2.12,2.12,4.56,3.81,6.51.65.76,1.72-.2,2-.82C328,56.91,324.63,48.5,318.87,43.93Z"/><path class="cls-5" d="M180.78,431.1c-4.48-2.91-10.57-2.57-15.43-5.05-5.17-2.63-9.71-6.85-13.8-10.92-7.64-7.6-12.85-20.1-12.76-30.92,0-1.52-1.65-1.31-2.13-.14-5.67,13.76-4.23,28.56,5.41,40.25,4.75,5.75,10.6,8.66,17.79,10.29,6.41,1.46,14.8,2.87,20.55-1.11C181.13,433,181.69,431.69,180.78,431.1Z"/></g><path class="cls-6" d="M243.07,206c-10.18-8-23.91-9.92-42-5.86l-.11,0a.49.49,0,0,0-.26.44,4.85,4.85,0,0,1-1.43,3.4,5.44,5.44,0,0,1-1.42,1.05,4.1,4.1,0,0,1-5.65-1.83.46.46,0,0,0-.58-.22c-2.87,1.1-5.72,2.37-8.47,3.75-16.26,8.19-29.05,20.34-37,35.14a.49.49,0,0,0,.13.62,4.68,4.68,0,0,1,1.84,3.37,4.8,4.8,0,0,1-1.41,3.67,5.22,5.22,0,0,1-1.42,1,4.31,4.31,0,0,1-2.47.46.47.47,0,0,0-.26,0,.49.49,0,0,0-.25.31c-2.78,10.38-.54,18.94,7.28,27.73l0,.05a.34.34,0,0,0,.09.08,17.94,17.94,0,0,0,14,3.85c2.75-.46,5.08.27,7.54,1a21,21,0,0,0,5.77,1.21.42.42,0,0,0,.22-.05.46.46,0,0,0,.26-.51,4.54,4.54,0,0,1,1.23-4A4.4,4.4,0,0,1,180,280a4.35,4.35,0,0,1,3.29-.27,5.06,5.06,0,0,1,2.08,1.33.48.48,0,0,0,.52.11,11.08,11.08,0,0,1,5.5-.92l1,.07c2,.17,4.51.39,6.27-.5l.28-.15a12.91,12.91,0,0,0,3.52-3.11c.4-.46.83-1,1.38-1.53a10.59,10.59,0,0,1,2.91-2.21c2-1,3.94-1.06,6.22-1.14a29.8,29.8,0,0,0,4.94-.45,8.56,8.56,0,0,0,2.3-.78h0a16.7,16.7,0,0,0,5.15-4.75,16.63,16.63,0,0,1,5-4.63,8.48,8.48,0,0,1,2.42-.79,18.31,18.31,0,0,0,5.19-1.61,13,13,0,0,0,6.33-7.16c.23-.58.45-1.17.66-1.78a21.34,21.34,0,0,1,2.16-4.72l1.15-1.65a39.61,39.61,0,0,0,5.29-9.16.53.53,0,0,1,0-.15.34.34,0,0,0,.06-.12,16.26,16.26,0,0,0,.65-8.46C252.88,217.68,248.68,210.42,243.07,206Zm-30.31,27.58h0a.32.32,0,0,0-.06.08.51.51,0,0,0,0,.53,4.66,4.66,0,0,1-.5,6.11,5.48,5.48,0,0,1-1.42,1.06,4.15,4.15,0,0,1-4.19-.18.45.45,0,0,0-.46,0l-.07,0a64.93,64.93,0,0,1-9.57,5.95,53.08,53.08,0,0,1-5.47,2.39s-.05,0-.1,0l-.11,0-.1.06c-3.61,1.22-7.84,2.26-11.54.55a6.38,6.38,0,0,1-3.2-3.11,5.33,5.33,0,0,1,.25-6.07,4.59,4.59,0,0,1,1.67-1.34,14.34,14.34,0,0,1,3.5-1c.41-.09.81-.17,1.2-.27a5.13,5.13,0,0,0,.68-.29,11,11,0,0,0,4.05-4.23c1.08-1.64,2.1-3.18,3.85-4.06a11.14,11.14,0,0,1,5.08-.88,11.21,11.21,0,0,0,5.25-.92,8.82,8.82,0,0,0,1.74-1.19,14,14,0,0,1,2.84-2.1,3.4,3.4,0,0,1,3.79.12A7.27,7.27,0,0,1,212.76,233.59Z"/><path class="cls-7" d="M237.55,217.54c-2.65-2-5.6-3.17-8.4-4.88-2.56-1.57-4.82-3.33-7.61-4.46-5.81-2.35-12.44-.95-18.33.29-7,1.46-14.15,1.69-20.43,5.53-5.72,3.49-9.39,9.73-14.65,13.86-2,1.57-3.91,2.91-5.67,4.34-2.77,2.26-6.67,4.78-9.89,13.7-2.92,8.08-2.27,20.13,7.5,21.49,3.38.47,6.66-.3,10,.51a21.73,21.73,0,0,0,7,.75c3.91-.29,7.07-2.95,11.12-2.93,3,0,5.81.55,8.85.14,6.78-.94,9.68-8.3,14.39-12.62,6.42-5.87,16.64-7.06,23.85-11.58C243.22,236.72,245.73,223.57,237.55,217.54Zm-18.94,14.88c.28,8.57-5.36,11.23-12,12.73-4.67,1-8.7,4.16-12.45,6.95-7.45,5.55-15.91,5.48-21.89-2a9.51,9.51,0,0,1-2.15-4.62c-.22-3.75,2.5-7.37,5.48-10.13,1.76-1.63,3.88-2.83,5.73-4.35,3.59-3,5.47-6.23,10.71-6.33,4.89-.09,8.26-1.69,12-4.79C212,213.26,218.35,224.62,218.61,232.42Z"/><path class="cls-7" d="M237.16,242.19a46.18,46.18,0,0,1-9.89,5.52c-3.34,1.31-6.92,2.27-9.9,4.39-.08.06,0,.2.08.17a103.22,103.22,0,0,0,11.34-3.65c3.34-1.27,6.76-2.93,8.58-6.23A.15.15,0,0,0,237.16,242.19Z"/><path class="cls-7" d="M239.79,215.9c-2.19-1.85-4.76-3.22-7.1-4.87s-4.87-3.77-7.62-5a27.62,27.62,0,0,0-13.92-2.25c-4.13.49-8.78,1.27-12.53,3.26-.16.08-.08.36.1.31,3.38-.83,6.74-1.67,10.16-2.27a29.88,29.88,0,0,1,12.61.93c4.92,1.31,8.82,5,13,7.73a37.31,37.31,0,0,1,6.59,5c2.54,2.64,2.83,5.78,2.95,9.33,0,.16.25.25.29.06C245.71,222.92,243.67,219.2,239.79,215.9Z"/><path class="cls-7" d="M182.86,253.83c-1.2,0-2.52-.54-3.68-.13,0,0,0,.06,0,.08,1,1,3.2,1.07,4.54,1a7.25,7.25,0,0,0,4.26-1.63.11.11,0,0,0-.09-.19C186.18,253.06,184.59,253.78,182.86,253.83Z"/><path class="cls-7" d="M190.47,252a5,5,0,0,0-1.42,1.06c-.06.05-.7.53-.42.7s.91-.21,1.22-.41c.47-.3.88-.65.8-1.26A.13.13,0,0,0,190.47,252Z"/><path class="cls-7" d="M168.92,226.32c2.3-1.66,4.42-3.66,5.08-6.56a.17.17,0,0,0-.29-.15,27.85,27.85,0,0,1-6.21,6.33c-1.94,1.42-4.24,2.58-5.66,4.62,0,.06,0,.12.07.09A33.89,33.89,0,0,0,168.92,226.32Z"/><path class="cls-7" d="M160,269c-2.62.09-5-2-6.68-3.88-3.44-3.84-3.4-8.25-4.17-13a.18.18,0,0,0-.34,0c-1.88,4.28.45,10,2.94,13.41,3.23,4.46,7.75,5.84,12.78,4.16.19-.07.28-.38,0-.45A14.21,14.21,0,0,0,160,269Z"/><path class="cls-7" d="M150.08,249.83c.07-.32.2-1.18-.34-1.22-.85-.07-.8,2.2-.47,2.65a.08.08,0,0,0,.1,0A2.59,2.59,0,0,0,150.08,249.83Z"/><path class="cls-7" d="M204.89,263.42a15.52,15.52,0,0,1-11.73,5.12c-3.23.07-6.69-.45-9.76.86-.17.08-.12.38.07.38,4.3,0,8.65.22,12.94-.09a10,10,0,0,0,8.69-6.12C205.15,263.45,205,263.32,204.89,263.42Z"/><path class="cls-7" d="M219.15,253.35c-2.71,1.17-5.65,2.88-7.12,5.6,0,.06,0,.15.1.11,2.55-1.51,4.82-3.35,7.52-4.62s5.72-1.85,8.29-3.49a.14.14,0,0,0-.08-.25A27.87,27.87,0,0,0,219.15,253.35Z"/><path class="cls-7" d="M232.17,208.55c.07,0,.12-.06.11-.13-.21-1.41-2-2.45-3-3.21s-2.53-1.72-3.9-1.5c-.09,0-.09.13,0,.18,1.09,1,2.52,1.61,3.7,2.48C230,207.08,231,208.37,232.17,208.55Z"/><path class="cls-7" d="M243.94,229.11a1.76,1.76,0,0,0-.19,1.51.1.1,0,0,0,.16,0,1.64,1.64,0,0,0,.45-1.45A.23.23,0,0,0,243.94,229.11Z"/><path class="cls-7" d="M239.76,239.1a2.52,2.52,0,0,0-1.15,1.09,3.07,3.07,0,0,0-.58,1.35.1.1,0,0,0,.09.1,1.78,1.78,0,0,0,1.22-.69,2.21,2.21,0,0,0,.66-1.68A.18.18,0,0,0,239.76,239.1Z"/><path class="cls-7" d="M207,260.58a2.82,2.82,0,0,0-1.41,2s0,.05,0,0a2.18,2.18,0,0,0,1.52-2A.12.12,0,0,0,207,260.58Z"/><path class="cls-7" d="M165.47,269.5c.09.25.36.23.57.34a1.12,1.12,0,0,0,.93-.07.36.36,0,0,0-.12-.68C166.68,269.07,165.37,269.22,165.47,269.5Z"/><path class="cls-7" d="M155.53,237.19c1-1.39,2.35-2.52,3.4-3.9a.09.09,0,0,0-.11-.14c-2.85,1.31-6.07,5.07-6.09,8.45,0,0,0,0,0,0C153.78,240.21,154.47,238.59,155.53,237.19Z"/><path class="cls-7" d="M161.18,231.42a.15.15,0,0,0-.19-.22,2.71,2.71,0,0,0-1.49,1.37.1.1,0,0,0,.13.12A3.21,3.21,0,0,0,161.18,231.42Z"/><path class="cls-7" d="M174.36,219.05a15.79,15.79,0,0,0,2.19-2.21,33.88,33.88,0,0,0,2.63-2.46c.07-.09-.05-.21-.15-.17a11.16,11.16,0,0,0-2.93,2.1c-.75.67-1.75,1.6-1.83,2.67C174.26,219,174.32,219.08,174.36,219.05Z"/><path class="cls-7" d="M215.78,226.32c.17,2.31.79,4.45.76,6.81,0,2.13-.78,4.09-1.18,6.14,0,.15.18.2.25.09,2.21-3.41,2.28-9.58.25-13.07C215.84,226.25,215.78,226.27,215.78,226.32Z"/><path class="cls-7" d="M215.59,225.4a.07.07,0,0,0,.11-.05,2.49,2.49,0,0,0-.65-1.61,4.27,4.27,0,0,0-1.52-1.58c-.08,0-.2,0-.15.14a15.72,15.72,0,0,0,1.12,1.59C214.84,224.37,215.07,225.12,215.59,225.4Z"/><path class="cls-7" d="M184.2,229.6c-1,.74-1.82,1.69-2.77,2.5s-2.14,1.43-2.75,2.49c0,0,0,.09,0,.07a11.37,11.37,0,0,0,3.14-2,6.84,6.84,0,0,0,2.53-2.88A.13.13,0,0,0,184.2,229.6Z"/><path class="cls-7" d="M208.13,202.84c1.83-.2,3.69.15,5.5-.14a.13.13,0,0,0,0-.24c-2.66-1.13-8.16-.83-10.35,1.29a0,0,0,0,0,0,.07C205,203.61,206.49,203,208.13,202.84Z"/><path class="cls-8" d="M253.94,237.21a.42.42,0,0,0-.25,0,.47.47,0,0,0-.23.25l-.14.34c-.14.37-.29.74-.46,1.1a22.29,22.29,0,0,1-2.9,4.31,19.9,19.9,0,0,0-3.44,5.49,28.49,28.49,0,0,1-4.38,8.4,10.62,10.62,0,0,1-3.44,2.75,10.05,10.05,0,0,1-2.5.87l-1.43.25a17,17,0,0,0-4.86,1.34,8,8,0,0,0-3.15,2.82l-.27.4c-.79,1.18-1.6,2.4-2.47,3.55a8.33,8.33,0,0,1-5.88,3.17c-.87.06-1.72.09-2.54.11-2.91.11-5.66.2-8.21,1.49a12.16,12.16,0,0,0-3.85,3.12,14.27,14.27,0,0,1-4.09,3.65,5.81,5.81,0,0,1-1.71.56,24,24,0,0,1-4.49.12,17.06,17.06,0,0,0-6.61.66l0,0a.54.54,0,0,0-.22.23.55.55,0,0,0,0,.38,4.67,4.67,0,0,1-1.16,4.86,5.27,5.27,0,0,1-1.42,1.06,4.11,4.11,0,0,1-5.65-1.82.46.46,0,0,0-.4-.25,15.27,15.27,0,0,1-5.18-1.22,29,29,0,0,0-3.3-1,15.38,15.38,0,0,0-6.05.17,13.6,13.6,0,0,1-5.95.09,15.6,15.6,0,0,1-1.74-.59.43.43,0,0,0-.37,0,.55.55,0,0,0-.18.16.48.48,0,0,0,0,.59c14.48,18.17,41.72,15.86,62.28,5.5.94-.47,1.87-1,2.76-1.46,14.76-8.23,38.59-28.25,34.34-51.1A.47.47,0,0,0,253.94,237.21Z"/><path class="cls-8" d="M209.11,226a2.54,2.54,0,0,0-2.46,0,9,9,0,0,0-2,1.56l-.52.48a13.48,13.48,0,0,1-2.75,2.05,4.19,4.19,0,0,1-1.32.44,16,16,0,0,1-3.11.08,13.14,13.14,0,0,0-4.06.24,6.83,6.83,0,0,0-1.16.46,11.34,11.34,0,0,0-4,4.1,11.27,11.27,0,0,1-3.93,4,8.76,8.76,0,0,1-.84.35c-.42.1-.86.19-1.31.28a11.76,11.76,0,0,0-3,.88l-.2.1a4,4,0,0,0-1.92,2.61,4.85,4.85,0,0,0,.71,3.77c1.68,2.24,5.25,2.37,7.94,2.09l.16-.05a.5.5,0,0,0,.25-.3c1.35-4.6,4.87-8.52,9.89-11.05a24.31,24.31,0,0,1,8.89-2.52.37.37,0,0,0,.17-.05.48.48,0,0,0,.23-.27,4,4,0,0,1,1-1.58,4.11,4.11,0,0,1,1.26-1,4.21,4.21,0,0,1,4,0,.49.49,0,0,0,.41,0h0a.52.52,0,0,0,.25-.33A5.6,5.6,0,0,0,209.11,226Z"/><path class="cls-9" d="M238.7,213.41a3.24,3.24,0,0,1-1.66,4.13,2.87,2.87,0,0,1-2.7,0l-.12-.08a.67.67,0,0,1-.14-.15l-.17-.24a3.51,3.51,0,0,1-.68-3.62,3,3,0,0,1,1.46-1.7,2.56,2.56,0,0,1,1.35-.29A2.83,2.83,0,0,1,238.7,213.41Zm-65.23,51.15a3.26,3.26,0,0,0-1.45.33,3.89,3.89,0,0,0-1.61,1.71,2.89,2.89,0,0,0-.06,1.52,3.75,3.75,0,0,0,1.9,2.55,2.44,2.44,0,0,0,2.23,0,3.21,3.21,0,0,0,1.24-1.15A3.6,3.6,0,0,0,176,266,2.76,2.76,0,0,0,173.47,264.56Zm22.78-67.48a3.84,3.84,0,0,0-1.74.39,4.39,4.39,0,0,0-1.87,2,3.29,3.29,0,0,0-.07,1.79,4.41,4.41,0,0,0,2.23,3,2.92,2.92,0,0,0,2.64,0,3.79,3.79,0,0,0,1.46-1.37,4.2,4.2,0,0,0,.36-4.12A3.24,3.24,0,0,0,196.25,197.08Zm-52.58,45.56a3.89,3.89,0,0,0-1.73.38,4.43,4.43,0,0,0-1.88,2,3.39,3.39,0,0,0-.07,1.79,4.41,4.41,0,0,0,2.23,3,2.91,2.91,0,0,0,2.65,0,3.81,3.81,0,0,0,1.45-1.36,4.2,4.2,0,0,0,.36-4.12A3.23,3.23,0,0,0,143.67,242.64Z"/><path class="cls-10" d="M212.19,235.1a4.2,4.2,0,0,1-.36,4.12,3.67,3.67,0,0,1-1.45,1.36,2.88,2.88,0,0,1-2.65,0,4.35,4.35,0,0,1-2.22-3,3.29,3.29,0,0,1,.07-1.79,4.42,4.42,0,0,1,1.87-2,3.89,3.89,0,0,1,1.73-.38A3.23,3.23,0,0,1,212.19,235.1Zm16.53,10.1a3.79,3.79,0,0,0-1.73.39,4.44,4.44,0,0,0-1.87,2,3.29,3.29,0,0,0-.07,1.79,4.36,4.36,0,0,0,2.23,3,2.89,2.89,0,0,0,2.64,0,3.75,3.75,0,0,0,1.45-1.36,4.2,4.2,0,0,0,.36-4.13A3.22,3.22,0,0,0,228.72,245.2Zm-35.63-31.58a3.08,3.08,0,0,0-1.44.32,4,4,0,0,0-1.61,1.71,2.79,2.79,0,0,0-.06,1.52,3.74,3.74,0,0,0,1.9,2.56,2.47,2.47,0,0,0,2.23,0,3.22,3.22,0,0,0,1.23-1.16,3.53,3.53,0,0,0,.31-3.49A2.73,2.73,0,0,0,193.09,213.62Zm60,2.85-.14.05a.53.53,0,0,0-.21.21.52.52,0,0,0,0,.44,28,28,0,0,1,1.94,5.8.46.46,0,0,0,.29.34.43.43,0,0,0,.37,0l.07,0a4.19,4.19,0,0,0,1.9-4.48A3.63,3.63,0,0,0,253.13,216.47Zm-60.77,48.87a3.89,3.89,0,0,0-1.73.38,4.38,4.38,0,0,0-1.88,2,3.39,3.39,0,0,0-.07,1.79,4.37,4.37,0,0,0,2.23,3,2.88,2.88,0,0,0,2.65,0,3.81,3.81,0,0,0,1.45-1.36,4.2,4.2,0,0,0,.36-4.12A3.23,3.23,0,0,0,192.36,265.34Zm-31.28-23.93a3.74,3.74,0,0,0-1.73.39,4.4,4.4,0,0,0-1.88,2,3.29,3.29,0,0,0-.07,1.79,4.39,4.39,0,0,0,2.23,3,2.91,2.91,0,0,0,2.65,0,3.89,3.89,0,0,0,1.45-1.36,4.22,4.22,0,0,0,.36-4.13A3.23,3.23,0,0,0,161.08,241.41Z"/><path class="cls-11" d="M157.22,262.31a3.23,3.23,0,0,1-1.66,4.13,2.85,2.85,0,0,1-2.69,0,.38.38,0,0,1-.12-.09.49.49,0,0,1-.15-.14l-.16-.24a3.49,3.49,0,0,1-.69-3.62,3,3,0,0,1,1.47-1.7,2.54,2.54,0,0,1,1.35-.29A2.83,2.83,0,0,1,157.22,262.31Zm6.52-49.9a3.79,3.79,0,0,0-.78.28,4.48,4.48,0,0,0-1.86,2,1.06,1.06,0,0,0-.06.19,3.17,3.17,0,0,0-.06.35,4.91,4.91,0,0,0,1.35,3.75.46.46,0,0,0,.53.08l.1-.07c1.72-1.53,3.32-2.85,4.88-4a.51.51,0,0,0,.15-.6A3.73,3.73,0,0,0,163.74,212.41Zm56.72-6.73a3.32,3.32,0,0,0-5.1-.6l-.13.15s-.06.08-.07.1a5.34,5.34,0,0,0-.42.83,4.25,4.25,0,0,0-.06,1.56,3.71,3.71,0,0,0,1.49,2.34,2.69,2.69,0,0,0,2.72.06,3.7,3.7,0,0,0,1.87-2.24A2.74,2.74,0,0,0,220.46,205.68Z"/><path class="cls-8" d="M185.14,282.29a4.18,4.18,0,0,1-.36,4.12,3.7,3.7,0,0,1-1.45,1.37c-1.59.8-3.51,0-4.47-1.89a1.11,1.11,0,0,0-.09-.22,4.52,4.52,0,0,1-.31-.92,3.29,3.29,0,0,1,.07-1.79,4.44,4.44,0,0,1,1.87-2,3.76,3.76,0,0,1,1.73-.39A3.22,3.22,0,0,1,185.14,282.29Zm23.37-32.76a3.09,3.09,0,0,0-1.44.33,3.92,3.92,0,0,0-1.61,1.7,2.8,2.8,0,0,0-.06,1.52,3.74,3.74,0,0,0,1.9,2.56,2.44,2.44,0,0,0,2.23,0,3.12,3.12,0,0,0,1.23-1.15,3.55,3.55,0,0,0,.31-3.5A2.74,2.74,0,0,0,208.51,249.53Zm-38.38-25.61a3.21,3.21,0,0,0-.76.55l-.13.15-.07.1a4.83,4.83,0,0,0-.42.82,4.31,4.31,0,0,0-.07,1.57,3.75,3.75,0,0,0,1.49,2.34,2.69,2.69,0,0,0,2.72.06,3.67,3.67,0,0,0,1.87-2.24,2.7,2.7,0,0,0-.3-2.2A3.39,3.39,0,0,0,170.13,223.92Zm56.72-29.6a4,4,0,0,0-4-.35,3,3,0,0,0-1.65,2.38.51.51,0,0,0,.1.38.47.47,0,0,0,.34.17,46.91,46.91,0,0,1,5.84.68.48.48,0,0,0,.29,0l.08,0a.48.48,0,0,0,.18-.34A2.93,2.93,0,0,0,226.85,194.32ZM229.21,228a2.92,2.92,0,0,0-.76.54l-.13.15-.07.1a5.83,5.83,0,0,0-.43.83,4.48,4.48,0,0,0-.06,1.56,3.81,3.81,0,0,0,1.49,2.35,2.72,2.72,0,0,0,2.72.05,3.68,3.68,0,0,0,1.87-2.23,2.71,2.71,0,0,0-.3-2.21A3.37,3.37,0,0,0,229.21,228Z"/><path class="cls-12" d="M210.35,232.49a4.23,4.23,0,0,1,.69.3.49.49,0,0,0,.41,0h0a.52.52,0,0,0,.25-.33,5.6,5.6,0,0,0-2.6-6.5,2.54,2.54,0,0,0-2.46,0,9,9,0,0,0-2,1.56l-.52.48a13.48,13.48,0,0,1-2.75,2.05,4.19,4.19,0,0,1-1.32.44,16,16,0,0,1-3.11.08,13.14,13.14,0,0,0-4.06.24,6.83,6.83,0,0,0-1.16.46,11.34,11.34,0,0,0-4,4.1,11.27,11.27,0,0,1-3.93,4,8.76,8.76,0,0,1-.84.35c-.42.1-.86.19-1.31.28a11.76,11.76,0,0,0-3,.88l-.2.1a4,4,0,0,0-1.92,2.61,4.85,4.85,0,0,0,.71,3.77,4.48,4.48,0,0,0,1.31,1.14c-.22-2.32.08-4.7,2-5.8s4-1.08,5.83-2.2c4.45-2.68,3.92-8.64,10.67-8.15a8.46,8.46,0,0,0,3.78-.26c1.65-.75,6-5.33,7.59-3.8a7.14,7.14,0,0,1,1.81,4.1Z"/><path class="cls-12" d="M253.69,237.26a.47.47,0,0,0-.23.25l-.14.34c-.14.37-.29.74-.46,1.1a22.29,22.29,0,0,1-2.9,4.31,19.9,19.9,0,0,0-3.44,5.49,28.49,28.49,0,0,1-4.38,8.4,10.62,10.62,0,0,1-3.44,2.75,10.05,10.05,0,0,1-2.5.87l-1.43.25a17,17,0,0,0-4.86,1.34,8,8,0,0,0-3.15,2.82l-.27.4c-.79,1.18-1.6,2.4-2.47,3.55a8.33,8.33,0,0,1-5.88,3.17c-.87.06-1.72.09-2.54.11-2.91.11-5.66.2-8.21,1.49a12.16,12.16,0,0,0-3.85,3.12,14.27,14.27,0,0,1-4.09,3.65,5.81,5.81,0,0,1-1.71.56,24,24,0,0,1-4.49.12,17.06,17.06,0,0,0-6.61.66l0,0a.54.54,0,0,0-.22.23.55.55,0,0,0,0,.38,4.67,4.67,0,0,1-1.16,4.86,5.27,5.27,0,0,1-1.42,1.06,4.11,4.11,0,0,1-5.65-1.82.46.46,0,0,0-.4-.25,15.27,15.27,0,0,1-5.18-1.22,29,29,0,0,0-3.3-1,15.38,15.38,0,0,0-6.05.17,13.6,13.6,0,0,1-5.95.09,15.6,15.6,0,0,1-1.74-.59.43.43,0,0,0-.37,0,.55.55,0,0,0-.18.16.48.48,0,0,0,0,.59c.51.64,1,1.24,1.57,1.83a14.52,14.52,0,0,0,2.83.28c2.49,0,5-.37,7.48-.33,2.91,0,5.85,1.18,8.7,1.76a13.7,13.7,0,0,0,4,.25,6.36,6.36,0,0,0,7,.75,6.68,6.68,0,0,0,3.53-4.41,18.16,18.16,0,0,1,5.27-.55c5.49.19,8.84-3.84,12.7-7.21,3.38-2.94,8-1.95,12.07-2.42,2.81-.32,4.58-2.46,6.2-4.61,3.43-4.58,6.77-5.63,11.86-7.31a13.67,13.67,0,0,0,5.75-3.95,21.08,21.08,0,0,0,3.19-5.45,76.81,76.81,0,0,1,6-10,16.81,16.81,0,0,0,1.58-3.07c-.08-.87-.19-1.75-.36-2.64a.47.47,0,0,0-.41-.39A.42.42,0,0,0,253.69,237.26Z"/><path class="cls-13" d="M245.72,261.22c-6.36,5.22-12.59,10.6-18.95,15.82a40.14,40.14,0,0,1-12.85,7.57,78.41,78.41,0,0,0-9,3.32c-7.69,3.62-14.87,5.85-23.37,6-6.58.1-13-1.42-19.43-2.59,15.2,10.63,37.61,7.67,55.17-1.18.94-.47,1.87-1,2.76-1.46,10.76-6,26.32-18.26,32.33-33.32C250.24,257.39,248,259.31,245.72,261.22Z"/><path class="cls-14" d="M207.46,221.45a6.08,6.08,0,0,0-3.93,1.28c-1.81,1.36-3.08,2.83-5.4,3.52-1.52.45-3.38-.05-5,.22a10.37,10.37,0,0,0-6.27,3.22,17.43,17.43,0,0,0-1.91,2.74c-1.75,2.74-4.09,2.76-6.64,4.13-3.7,2-5.47,5.33-3.86,9.41a5.2,5.2,0,0,0,2.76,2.89A6,6,0,0,1,176,247.1a5.33,5.33,0,0,1,.25-6.07,4.59,4.59,0,0,1,1.67-1.34,14.34,14.34,0,0,1,3.5-1c.41-.09.81-.17,1.2-.27a5.13,5.13,0,0,0,.68-.29,11,11,0,0,0,4.05-4.23c1.08-1.64,2.1-3.18,3.85-4.06a11.14,11.14,0,0,1,5.08-.88,11.21,11.21,0,0,0,5.25-.92,8.82,8.82,0,0,0,1.74-1.19,14,14,0,0,1,2.84-2.1,3.4,3.4,0,0,1,3.79.12,7.27,7.27,0,0,1,2.85,8.76h0a.32.32,0,0,0-.06.08.55.55,0,0,0,0,.17C215.26,229,213.47,222.14,207.46,221.45Z"/><path class="cls-14" d="M253.6,234a.34.34,0,0,0,.06-.12,16.26,16.26,0,0,0,.65-8.46,33.44,33.44,0,0,0-1.39-5.15A32.88,32.88,0,0,1,249.74,231c-1.55,3-4,5.4-5.63,8.4a79.19,79.19,0,0,0-3.13,8c-2.38,6-6.62,7-11.9,9.23a18.55,18.55,0,0,0-6.64,5.18c-3.22,3.57-6.3,3.53-10.69,3.85a11.69,11.69,0,0,0-6.78,2.17c-3.93,3.07-7,8.19-12.44,7.76-2.46-.19-5-1.41-7.48-.92a27.49,27.49,0,0,0-7.46,2.89c-6.79,3.51-13.75-.7-21-.36a31.53,31.53,0,0,1-9.26-.83c.71.94,1.46,1.88,2.3,2.82l0,.05a.34.34,0,0,0,.09.08,17.94,17.94,0,0,0,14,3.85c2.75-.46,5.08.27,7.54,1a21,21,0,0,0,5.77,1.21.42.42,0,0,0,.22-.05.46.46,0,0,0,.26-.51,4.54,4.54,0,0,1,1.23-4A4.4,4.4,0,0,1,180,280a4.35,4.35,0,0,1,3.29-.27,5.06,5.06,0,0,1,2.08,1.33.48.48,0,0,0,.52.11,11.08,11.08,0,0,1,5.5-.92l1,.07c2,.17,4.51.39,6.27-.5l.28-.15a12.91,12.91,0,0,0,3.52-3.11c.4-.46.83-1,1.38-1.53a10.59,10.59,0,0,1,2.91-2.21c2-1,3.94-1.06,6.22-1.14a29.8,29.8,0,0,0,4.94-.45,8.56,8.56,0,0,0,2.3-.78h0a16.7,16.7,0,0,0,5.15-4.75,16.63,16.63,0,0,1,5-4.63,8.48,8.48,0,0,1,2.42-.79,18.31,18.31,0,0,0,5.19-1.61,13,13,0,0,0,6.33-7.16c.23-.58.45-1.17.66-1.78a21.34,21.34,0,0,1,2.16-4.72l1.15-1.65a39.61,39.61,0,0,0,5.29-9.16A.53.53,0,0,1,253.6,234Z"/><path class="cls-14" d="M252.35,218.74c-.06-.13-.11-.26-.16-.4A1,1,0,0,0,252.35,218.74Z"/><path class="cls-15" d="M225.3,250.16a4.21,4.21,0,0,0,2,2.24,2.89,2.89,0,0,0,2.64,0,3.75,3.75,0,0,0,1.45-1.36,4.2,4.2,0,0,0,.36-4.13,2.84,2.84,0,0,0-.55-.77A18.52,18.52,0,0,1,230,249C228.81,251.21,227.06,250.72,225.3,250.16Z"/><path class="cls-15" d="M206.1,239a4.16,4.16,0,0,0,1.63,1.57,2.88,2.88,0,0,0,2.65,0,3.67,3.67,0,0,0,1.45-1.36,4.2,4.2,0,0,0,.36-4.12,2.6,2.6,0,0,0-.28-.45,18.38,18.38,0,0,1-1.24,2.47C209.66,238.73,207.84,239,206.1,239Z"/><path class="cls-15" d="M164.09,243.14a3,3,0,0,0-.46-.65,7.89,7.89,0,0,1-1.66,2.63c-1.57,1.57-3.09,1-4.6.22,0,.09,0,.17,0,.26a4.39,4.39,0,0,0,2.23,3,2.91,2.91,0,0,0,2.65,0,3.89,3.89,0,0,0,1.45-1.36A4.22,4.22,0,0,0,164.09,243.14Z"/><path class="cls-15" d="M195.65,215.09a3.06,3.06,0,0,0-.4-.59,9.53,9.53,0,0,1-.88,2,2.61,2.61,0,0,1-2.63,1.22,3,3,0,0,1-1.79-.8c0,.1,0,.19,0,.29a3.74,3.74,0,0,0,1.9,2.56,2.47,2.47,0,0,0,2.23,0,3.22,3.22,0,0,0,1.23-1.16A3.53,3.53,0,0,0,195.65,215.09Z"/><path class="cls-15" d="M195.33,267a6.85,6.85,0,0,1-1.84,2.56,4.23,4.23,0,0,1-4.5.9,4.16,4.16,0,0,0,1.92,2.06,2.88,2.88,0,0,0,2.65,0,3.81,3.81,0,0,0,1.45-1.36,4.2,4.2,0,0,0,.36-4.12Z"/><path class="cls-16" d="M166.48,212.8a6.5,6.5,0,0,1-.67,2,5.61,5.61,0,0,1-4.52,2.57,4.46,4.46,0,0,0,1,1.66.46.46,0,0,0,.53.08l.1-.07c1.72-1.53,3.32-2.85,4.88-4a.51.51,0,0,0,.15-.6A3.42,3.42,0,0,0,166.48,212.8Z"/><path class="cls-17" d="M220.76,207.88a2.74,2.74,0,0,0-.3-2.2,3.17,3.17,0,0,0-.28-.36,4.61,4.61,0,0,1-1.34,2.45,3.25,3.25,0,0,1-3,1,2.78,2.78,0,0,1-1-.52,3.46,3.46,0,0,0,1.33,1.85,2.69,2.69,0,0,0,2.72.06A3.7,3.7,0,0,0,220.76,207.88Z"/><path class="cls-16" d="M157.22,262.31a4.14,4.14,0,0,0-.31-.55,4,4,0,0,1-1.83,2.25,3.8,3.8,0,0,1-3.56-.23,4.07,4.07,0,0,0,.92,2.2l.16.24a.49.49,0,0,0,.15.14.38.38,0,0,0,.12.09,2.85,2.85,0,0,0,2.69,0A3.23,3.23,0,0,0,157.22,262.31Z"/><path class="cls-12" d="M227.51,197.58a.48.48,0,0,0,.29,0l.08,0a.48.48,0,0,0,.18-.34,2.93,2.93,0,0,0-1.21-2.83,3.63,3.63,0,0,0-1-.51,7.35,7.35,0,0,1-1,3.38C225.76,197.29,226.65,197.42,227.51,197.58Z"/><path class="cls-12" d="M211.07,251a2.16,2.16,0,0,0-.24-.35,6.14,6.14,0,0,1-1,2,3.2,3.2,0,0,1-4.36.75,3.64,3.64,0,0,0,1.78,2.2,2.44,2.44,0,0,0,2.23,0,3.12,3.12,0,0,0,1.23-1.15A3.55,3.55,0,0,0,211.07,251Z"/><path class="cls-12" d="M233.84,231.3a2.71,2.71,0,0,0-.3-2.21,2.56,2.56,0,0,0-.2-.26A4.6,4.6,0,0,1,232,231a3.74,3.74,0,0,1-2.63.86,3.57,3.57,0,0,1-1.55-.52,3.68,3.68,0,0,0,1.42,2.15,2.72,2.72,0,0,0,2.72.05A3.68,3.68,0,0,0,233.84,231.3Z"/><path class="cls-12" d="M181.22,285.19c-1.31.25-2.17-.58-2.8-1.63a3.42,3.42,0,0,0,0,1.19,4.52,4.52,0,0,0,.31.92,1.11,1.11,0,0,1,.09.22c1,1.88,2.88,2.69,4.47,1.89a3.7,3.7,0,0,0,1.45-1.37,4.18,4.18,0,0,0,.36-4.12,3.24,3.24,0,0,0-.35-.53,8.88,8.88,0,0,1-.76,1.42A4.44,4.44,0,0,1,181.22,285.19Z"/><path class="cls-12" d="M174.76,227.27a2.7,2.7,0,0,0-.3-2.2,3.27,3.27,0,0,0-.54-.63c0,.09-.06.19-.11.28a3.89,3.89,0,0,1-2.38,1.68,4.27,4.27,0,0,1-2.78,0q0,.33,0,.69a3.75,3.75,0,0,0,1.49,2.34,2.69,2.69,0,0,0,2.72.06A3.67,3.67,0,0,0,174.76,227.27Z"/><path class="cls-18" d="M255.64,219.94a2.91,2.91,0,0,1-1.68.29,23.8,23.8,0,0,1,.75,2.74.46.46,0,0,0,.29.34.43.43,0,0,0,.37,0l.07,0a4.19,4.19,0,0,0,1.9-4.48,1.33,1.33,0,0,1-.09-.21A5.27,5.27,0,0,1,255.64,219.94Z"/><path class="cls-19" d="M238.7,213.41a3,3,0,0,0-1.71-1.76,1.1,1.1,0,0,1,0,.16,3,3,0,0,1-1.27,2.58,2.81,2.81,0,0,1-2.66.45l-.1-.06a4,4,0,0,0,.92,2.3l.17.24a.67.67,0,0,0,.14.15l.12.08a2.87,2.87,0,0,0,2.7,0A3.24,3.24,0,0,0,238.7,213.41Z"/><path class="cls-19" d="M197.44,204.3a3.79,3.79,0,0,0,1.46-1.37,4.2,4.2,0,0,0,.36-4.12,3.11,3.11,0,0,0-1.08-1.19,4.17,4.17,0,0,1-1.06,3.12,3.58,3.58,0,0,1-4.08.36,1.92,1.92,0,0,1-.54-.56,3.06,3.06,0,0,0,.07.73,4.41,4.41,0,0,0,2.23,3A2.92,2.92,0,0,0,197.44,204.3Z"/><path class="cls-19" d="M146.68,244.37a2.88,2.88,0,0,0-.58-.79,7.11,7.11,0,0,1-1.64,3.39,3.91,3.91,0,0,1-3.94,1.17,4.1,4.1,0,0,0,1.7,1.7,2.91,2.91,0,0,0,2.65,0,3.81,3.81,0,0,0,1.45-1.36A4.2,4.2,0,0,0,146.68,244.37Z"/><path class="cls-19" d="M176,266a2.65,2.65,0,0,0-1.18-1.14,3.63,3.63,0,0,1-.12,1.6,2.57,2.57,0,0,1-2.24,1.58,3.67,3.67,0,0,1-2.19-.49,3.5,3.5,0,0,0,0,.54,3.75,3.75,0,0,0,1.9,2.55,2.44,2.44,0,0,0,2.23,0,3.21,3.21,0,0,0,1.24-1.15A3.6,3.6,0,0,0,176,266Z"/><path class="cls-20" d="M203,226.42l0,0c-3.92,3.43-7.78.9-11.87,2.87s-4.48,7-8.58,8.6c-2.27.54-5.08.78-6.64,2.82a5.81,5.81,0,0,0-.31,6.59,6.9,6.9,0,0,0,3.44,3.33c3.78,1.75,8.12.74,11.91-.54a.64.64,0,0,0,.14-.08.89.89,0,0,0,.15,0,61.17,61.17,0,0,0,15.15-8.41,4.84,4.84,0,0,0,6.2-.94,5.14,5.14,0,0,0,.55-6.76c0-.05.06-.09.08-.15a7.78,7.78,0,0,0-3-9.33C207.58,222.6,205,224.66,203,226.42Zm-12.75,21.51a24.18,24.18,0,0,1-3.18.82c1.44-2,2.53-4.25,4.39-6.06a21.19,21.19,0,0,1,12.59-5.53,6.55,6.55,0,0,0,.27,1.56,5.51,5.51,0,0,0,.5,1.18A59.1,59.1,0,0,1,190.25,247.93Zm21.19-9c-1.78,2.74-4.86,1.26-5.48-1.5a2.89,2.89,0,0,1,.06-1.53,3.43,3.43,0,0,1,3.16-2.07C212,233.85,212.85,236.79,211.44,239Zm-.19-6.6a4.71,4.71,0,0,0-.76-.33,4.84,4.84,0,0,0-5,1.36,4.42,4.42,0,0,0-1.12,1.75c-7.91.63-16.74,5.61-19.19,13.91-3,.31-6.09,0-7.53-1.9a4,4,0,0,1,1.06-5.65,18.86,18.86,0,0,1,4.38-1.22c4.87-1.61,5.29-7.65,9.95-8.94,2.23-.62,4.82,0,7.12-.31,1.7-.28,3.14-1.58,4.4-2.7l0,0c1.15-1,2.66-2.79,4.32-1.89A5.12,5.12,0,0,1,211.25,232.35Z"/><path class="cls-20" d="M240.57,214.59a4.6,4.6,0,0,0-7.32-3.89h0a4.53,4.53,0,0,0-1.85,3.53,6.57,6.57,0,0,0,0,1.25,4.44,4.44,0,0,0,1.35,2.83l.16.18C235.76,221.45,240.46,218.31,240.57,214.59Zm-6,2.53-.11-.07c-.7-1.06-1.35-1.8-.79-3.43A2.4,2.4,0,0,1,236,212a2.37,2.37,0,0,1,2.25,1.67C239.27,215.86,236.53,218.21,234.57,217.12Z"/><path class="cls-20" d="M151.77,259.6h0a4.56,4.56,0,0,0-1.85,3.53,6.56,6.56,0,0,0,0,1.25,4.38,4.38,0,0,0,1.34,2.83l.16.18c2.91,3,7.61-.19,7.72-3.91A4.6,4.6,0,0,0,151.77,259.6Zm1.32,6.42L153,266c-.71-1.06-1.36-1.81-.8-3.43a2.38,2.38,0,0,1,2.35-1.66,2.35,2.35,0,0,1,2.25,1.66A2.77,2.77,0,0,1,153.09,266Z"/><path class="cls-20" d="M225,245.21a5.22,5.22,0,0,0-1.14,5.35c1.2,4,5.51,4.77,8.25,1.93a5.15,5.15,0,0,0-2.07-8.63A4.85,4.85,0,0,0,225,245.21Zm6,5.57c-1.79,2.74-4.87,1.26-5.48-1.5a2.89,2.89,0,0,1,.05-1.53,3.42,3.42,0,0,1,3.16-2.06C231.54,245.69,232.39,248.63,231,250.78Z"/><path class="cls-20" d="M170.09,264.48a4.68,4.68,0,0,0-1,4.68,4.23,4.23,0,0,0,7.36,1.75,4.61,4.61,0,0,0-1.84-7.71A4.39,4.39,0,0,0,170.09,264.48Zm5.24,4.78c-1.49,2.27-4,1-4.52-1.26a2.4,2.4,0,0,1,.05-1.26,2.87,2.87,0,0,1,2.6-1.69C175.8,265.05,176.49,267.47,175.33,269.26Z"/><path class="cls-20" d="M189.72,213.53a4.67,4.67,0,0,0-1,4.68,4.23,4.23,0,0,0,7.36,1.75,4.6,4.6,0,0,0-1.84-7.7A4.38,4.38,0,0,0,189.72,213.53Zm5.23,4.78c-1.48,2.27-4,1-4.51-1.25a2.3,2.3,0,0,1,.05-1.26,2.85,2.85,0,0,1,2.6-1.69C195.43,214.1,196.12,216.52,195,218.31Z"/><path class="cls-20" d="M205.14,249.44a4.71,4.71,0,0,0-1,4.69,4.24,4.24,0,0,0,7.36,1.75,4.6,4.6,0,0,0-1.84-7.71A4.38,4.38,0,0,0,205.14,249.44Zm5.23,4.79c-1.48,2.26-4,1-4.51-1.26a2.4,2.4,0,0,1,0-1.26,2.88,2.88,0,0,1,2.61-1.69C210.85,250,211.54,252.44,210.37,254.23Z"/><path class="cls-20" d="M252.29,215.11a37.35,37.35,0,0,0-8.37-10.47,32.38,32.38,0,0,0-14.44-7.15,4.84,4.84,0,0,0-4.78-5.5,4.74,4.74,0,0,0-4.93,4.34,80.42,80.42,0,0,0-19.05,2.2,5.35,5.35,0,0,0-3.16-2.8,4.86,4.86,0,0,0-5,1.36,5,5,0,0,0-1.35,4.35,94.29,94.29,0,0,0-22,12,5.11,5.11,0,0,0-5-2.64,4.77,4.77,0,0,0-3.72,2.29,1.75,1.75,0,0,0-.16.27.08.08,0,0,0,0,0,5.74,5.74,0,0,0,1,6.56,80.92,80.92,0,0,0-16.53,21.26,4.85,4.85,0,0,0-4.71,1.41,5.21,5.21,0,0,0-1.14,5.35,5.09,5.09,0,0,0,2,2.83c-2.07,7.68-1.62,15.11,1.75,21.43a23.35,23.35,0,0,0,9.41,10.45,1.18,1.18,0,0,0,.15.42c6.73,10.24,18.83,15.33,30.44,16.65,13.25,1.5,26.54-3.35,38.18-9.53,17.91-9.51,41.88-32.87,34.38-56.26a25.1,25.1,0,0,0,.45-9,5.9,5.9,0,0,0,3.12-6.86C257.81,215.33,254.76,214.51,252.29,215.11Zm-24.69-18a46.32,46.32,0,0,0-5.9-.68C222.16,192.86,228,193.58,227.6,197.1Zm-29.09,5.56c-1.79,2.74-4.87,1.26-5.48-1.5a2.89,2.89,0,0,1,.05-1.53,3.42,3.42,0,0,1,3.16-2.06C199.06,197.56,199.91,200.51,198.51,202.66ZM161.45,215.3a3.43,3.43,0,0,1,.06-.34,3.53,3.53,0,0,1,2.34-2.08,3.28,3.28,0,0,1,3.71,1.72c-1.69,1.29-3.31,2.65-4.9,4.06A4.36,4.36,0,0,1,161.45,215.3Zm-21,31.42a2.89,2.89,0,0,1,.06-1.53,3.4,3.4,0,0,1,3.16-2.07c2.81,0,3.67,2.94,2.26,5.1C144.15,251,141.06,249.48,140.45,246.72Zm79.34,41.55c-19.28,10.76-48.94,15.54-64.46-3.92a16.93,16.93,0,0,0,1.78.6c4,1.13,8-1.19,12-.26,3.08.72,5.46,2.26,8.58,2.29,1.59,3,5.34,3.43,7.81.87a5.18,5.18,0,0,0,1.28-5.38c3.49-1.31,7.34-.19,11-.76,2.57-.4,4.48-2.47,6.09-4.38,4.17-4.92,8.71-4.18,14.27-4.54a8.78,8.78,0,0,0,6.22-3.36c1-1.29,1.85-2.63,2.75-4,2.31-3.45,5.64-3.54,9.14-4.21a10.93,10.93,0,0,0,6.22-3.79,28.74,28.74,0,0,0,4.45-8.54c1.45-3.87,4.62-6.13,6.33-9.75.23-.49.41-1,.61-1.47C257.89,259.21,236,279.21,219.79,288.27Zm-37.66-7.22c2.81,0,3.67,2.94,2.26,5.09-1.54,2.38-4.07,1.58-5.11-.48a1.36,1.36,0,0,0-.11-.25,4.63,4.63,0,0,1-.25-.77,2.89,2.89,0,0,1,.05-1.53A3.42,3.42,0,0,1,182.13,281.05Zm71.09-47.33a.79.79,0,0,0-.14.37c-1.38,3.76-3.94,7.08-6.35,10.59-1.34,1.95-2,4.41-2.88,6.6-2.08,5.23-5.88,7.58-11.15,8.47-7.13,1.2-8.16,9.66-14.89,10.95-5.73,1.1-9.75-.81-14.32,3.94-1.91,2-2.43,3.13-4.8,4.56-1.91,1.15-5.08.66-7.25.51a11.7,11.7,0,0,0-5.72,1,5.57,5.57,0,0,0-2.27-1.46,4.85,4.85,0,0,0-5,1.36,5,5,0,0,0-1.35,4.35c-4.66-.1-8.4-3.09-13.4-2.24A17.43,17.43,0,0,1,150,278.92l0,0c-7.22-8.11-10.1-16.53-7.21-27.32a5.33,5.33,0,0,0,3.81-9.42c9.76-18.17,26.59-31.47,45.23-38.67,1.58,3,5.33,3.45,7.81.89a5.35,5.35,0,0,0,1.57-3.74c14.21-3.2,29.5-3.73,41.59,5.77,5.76,4.53,9.71,11.81,11.06,19.11A15.83,15.83,0,0,1,253.22,233.72Zm3.67-14.79a3.68,3.68,0,0,1-1.72,3.93,29,29,0,0,0-2-5.9A3.14,3.14,0,0,1,256.89,218.93Z"/><path class="cls-20" d="M188.63,265.34a5.25,5.25,0,0,0-1.14,5.35c1.2,4,5.51,4.77,8.25,1.94a5.16,5.16,0,0,0-2.07-8.64A4.88,4.88,0,0,0,188.63,265.34Zm6,5.58c-1.78,2.73-4.87,1.26-5.48-1.5a2.79,2.79,0,0,1,.06-1.53,3.4,3.4,0,0,1,3.16-2.07C195.17,265.82,196,268.76,194.62,270.92Z"/><path class="cls-20" d="M164.46,248.7a5.15,5.15,0,0,0-2.07-8.63,4.87,4.87,0,0,0-5,1.35,5.24,5.24,0,0,0-1.14,5.35C157.41,250.74,161.72,251.54,164.46,248.7Zm-6.6-3.21a2.75,2.75,0,0,1,.06-1.52,3.39,3.39,0,0,1,3.15-2.07c2.82,0,3.67,2.94,2.27,5.1C161.55,249.73,158.47,248.26,157.86,245.49Z"/><path class="cls-20" d="M169.4,230.61c2.81,2.43,6.41-.83,6.88-3.81.54-3.46-3.59-5.46-6.27-4.37-2.13.86-3.77,3.53-2.3,5.66A6.4,6.4,0,0,0,169.4,230.61Zm4.66-5.28c1.35,2.18-1.62,5-3.64,3.71a3.4,3.4,0,0,1-1.28-2.06,3.82,3.82,0,0,1,.06-1.31,5.23,5.23,0,0,1,.37-.7,1.58,1.58,0,0,1,.12-.15A2.92,2.92,0,0,1,174.06,225.33Z"/><path class="cls-20" d="M215.39,211.22c2.81,2.43,6.42-.83,6.88-3.81.54-3.46-3.58-5.46-6.27-4.37-2.13.87-3.77,3.53-2.29,5.66A6.49,6.49,0,0,0,215.39,211.22Zm4.67-5.28c1.34,2.18-1.62,5-3.65,3.71a3.4,3.4,0,0,1-1.28-2.06,4.08,4.08,0,0,1,.06-1.31,5.23,5.23,0,0,1,.37-.7l.13-.15A2.92,2.92,0,0,1,220.06,205.94Z"/><path class="cls-20" d="M229.09,226.45c-2.13.87-3.78,3.53-2.3,5.66a6.43,6.43,0,0,0,1.69,2.52c2.81,2.43,6.41-.82,6.88-3.81C235.9,227.36,231.78,225.36,229.09,226.45Zm.41,6.61a3.35,3.35,0,0,1-1.28-2.06,3.75,3.75,0,0,1,.06-1.3,5.23,5.23,0,0,1,.37-.7,1.67,1.67,0,0,1,.12-.16,2.92,2.92,0,0,1,4.37.52C234.49,231.53,231.52,234.35,229.5,233.06Z"/><path class="cls-20" d="M249.3,255.39c-4.44,9.48-13,17.26-21,23.42a93.48,93.48,0,0,1-16.1,9.88c-5.62,2.73-11.31,4.1-17.24,5.73-.07,0-.07.13,0,.13,5.43.34,11.39-1.92,16.34-4.06a88.21,88.21,0,0,0,17.19-10.22c8.22-6.1,17.92-14.39,21-24.79A.12.12,0,1,0,249.3,255.39Z"/><path class="cls-20" d="M251.31,250.76a4.91,4.91,0,0,0-.78,1.61,5.86,5.86,0,0,0-.48,1.87,0,0,0,0,0,.07,0,3.46,3.46,0,0,0,1-1.49,3.23,3.23,0,0,0,.35-2C251.47,250.75,251.37,250.69,251.31,250.76Z"/><path class="cls-20" d="M190.28,206.28c.16-.07,0-.3-.12-.25-7.74,2.78-14.81,7.58-21.3,12.71-7.25,5.73-14.51,12.82-19.1,21.09a0,0,0,0,0,.07,0C160.7,225.31,174.06,213.92,190.28,206.28Z"/><path class="cls-20" d="M246.06,212.24c2.89,4.7,5.18,9.75,5.4,15.42a19.74,19.74,0,0,1-1.05,6.82c-.71,2.16-2.1,3.77-3.06,5.75,0,.05,0,.1.07.06,3.61-2.48,4.71-8.45,4.72-12.58a25.13,25.13,0,0,0-5.93-15.57C246.14,212.06,246,212.15,246.06,212.24Z"/><path class="cls-20" d="M245.27,211.25s.11,0,.11-.08a2.77,2.77,0,0,0-1.3-1.71s-.07,0-.05,0a2.41,2.41,0,0,0,.51.82A6.06,6.06,0,0,0,245.27,211.25Z"/><path class="cls-20" d="M152.06,276.86c-2.76-2.19-4.32-5.05-6.26-7.93-.07-.1-.23,0-.21.1,1.47,6.11,9.84,13.46,16.18,12.1a.09.09,0,0,0,0-.18C158.1,280.18,155.07,279.26,152.06,276.86Z"/><path class="cls-21" d="M349.68,227.66a.45.45,0,0,0-.29-.22.48.48,0,0,0-.29,0,19.5,19.5,0,0,1-1.77.82l-1,.41c-1.67.72-3.4,1.46-5,1.13a4.34,4.34,0,0,1-.48-.14,3.35,3.35,0,0,1-2.17-2.75c-.13-3.14,3.08-5.19,5-6.13a.52.52,0,0,0,.27-.37.53.53,0,0,0-.13-.44,72.45,72.45,0,0,0-18.49-13.56l-.11,0a.45.45,0,0,0-.48.22c-.22.37-.43.71-.68,1.07-1.37,2.4-2.83,3.4-4.48,3.05a3.25,3.25,0,0,1-2.45-1.71c-.74-1.58-.09-3.92.58-5.6a.53.53,0,0,0,0-.39.42.42,0,0,0-.25-.27A77.78,77.78,0,0,0,305,199a66.28,66.28,0,0,0-39,3.38.5.5,0,0,0-.27.28.55.55,0,0,0,0,.4,20.87,20.87,0,0,1,.73,2c1,2.67.77,4.56-.75,5.79a3.11,3.11,0,0,1-2.64.83c-1.51-.31-3-2-4.51-5.17a.44.44,0,0,0-.28-.24h0a.44.44,0,0,0-.33.07c-7,4.79-15.09,14.48-16.89,23.74a16.88,16.88,0,0,0,2.24,12.81,22.48,22.48,0,0,0,5.78,5.55c2.2,1.65,4.29,3.22,5.76,5.67a58.76,58.76,0,0,1,3.18,6.47,47.85,47.85,0,0,0,4.19,8,.33.33,0,0,0,.06.1,12.71,12.71,0,0,0,7.49,4.89,15.81,15.81,0,0,0,6.37-.11.48.48,0,0,0,.36-.34.53.53,0,0,0-.11-.5,5.7,5.7,0,0,1-1.87-3.73,3.52,3.52,0,0,1,1.09-2.39,3.31,3.31,0,0,1,3.31-.87c2.32.48,4.92,2.48,6.62,4.22a.48.48,0,0,0,.18.08.51.51,0,0,0,.3,0c4.14-1.69,7.5-2.18,10.59-1.53a17,17,0,0,1,7.23,3.71c3.1,2.51,6.75,5.26,10.89,6.13a12.57,12.57,0,0,0,6.71-.4c4-1.33,7.27-3.51,10.77-5.82l1.66-1.1a23,23,0,0,1,8.49-3.54c5.8-1.18,8.32-6.13,9.86-10.3A34.16,34.16,0,0,0,349.68,227.66ZM315.28,239c-3.74,4.1-8.46,4.19-13.8,3.9a54.3,54.3,0,0,1-8.32-1h0a24,24,0,0,1-8.08-3.07c-3.28-2.07-5.57-5.75-5.56-8.93-.22-3.76,1.91-8.17,5.4-9.47a23.91,23.91,0,0,0-2.31,2.78.54.54,0,0,0,0,.6.41.41,0,0,0,.27.18.43.43,0,0,0,.25,0,6.06,6.06,0,0,1,1.85-.46,7.54,7.54,0,0,1,2.26.15,18.83,18.83,0,0,1,5.37,2.41,19.1,19.1,0,0,0,5.43,2.43,7.7,7.7,0,0,0,2.52.13,31.78,31.78,0,0,0,3.68-.73c2.47-.59,5.27-1.26,7.57-.78a5.55,5.55,0,0,1,2.31,1,.71.71,0,0,0,.18.08.44.44,0,0,0,.4-.13.53.53,0,0,0,.08-.63,21.77,21.77,0,0,0-1.93-2.82c2.11.78,3.54,3.72,4,6.44a10.36,10.36,0,0,1,0,3.6A6.54,6.54,0,0,1,315.28,239Z"/><path class="cls-22" d="M338.17,233.53c-3.32-5.07-5.18-12.65-10.2-16.15a16.23,16.23,0,0,0-6.88-2.6c-3.94-.71-7.25-2.72-10.87-4.37a42.77,42.77,0,0,0-19.89-3.72,39.15,39.15,0,0,0-5.93.76,33.76,33.76,0,0,0-13.6,4.9,41.45,41.45,0,0,0-13.11,13.79c-1.95,3.22-4.86,10.47-1.5,13.76a8.45,8.45,0,0,0,4.33,2.21c4.62,1.11,7.6,1.92,9.29,7.47,1.44,4.72,1,10.21,5.47,13,1.4.87,3.86.43,5.27,0,4.12-1.27,8-2.58,12.27-2.92,9.12-.74,16.66,3.38,25.2,5.6,9.83,2.55,19.37-9.9,23.32-18.46C343.6,241.86,340.65,237.3,338.17,233.53ZM290.4,246.36c-7.65-1.81-13.62-6.54-16.19-14.73a14.69,14.69,0,0,1,1.27-11.08c2.76-5.41,5.56-7.49,11-8,5.27-.49,10.26,3.92,15.35,5,4.89,1,8.82-1.12,13.69,1.38,5.54,2.84,9,9.69,8.46,16.32C322.64,252.2,300.09,248.64,290.4,246.36Z"/><path class="cls-23" d="M258.84,219.78c3.4-2.83,5.83-6.67,9.48-9.26,3.43-2.43,7.6-3.81,11.41-5.29a.21.21,0,0,0-.08-.4c-8.17.32-18.26,5.55-21,14.84A.1.1,0,0,0,258.84,219.78Z"/><path class="cls-23" d="M281.4,205.43a3,3,0,0,0,.85.12,2,2,0,0,0,1.41-.53.22.22,0,0,0,0-.32,1.79,1.79,0,0,0-1.51-.45,1.61,1.61,0,0,0-.79.26,2.22,2.22,0,0,0-.47.55s0,.09,0,.11A2.28,2.28,0,0,0,281.4,205.43Z"/><path class="cls-23" d="M346.17,243.14a15.82,15.82,0,0,0-2.74-9.65c-2.64-4.25-5.65-7.9-7.65-12.61a.15.15,0,0,0-.28.07c-.16,7.92,7.77,12.35,8.68,19.85,1.12,9.11-6.63,15.77-11.77,21.6-.11.13,0,.37.18.29C339.25,259.41,345.73,251.35,346.17,243.14Z"/><path class="cls-23" d="M325.51,266.84a23.15,23.15,0,0,1-5.88,1.11c-1.76.13-3.32-.7-5-.66,0,0,0,0,0,.06.61,1.8,3,2.31,4.53,2.29a10.21,10.21,0,0,0,6.57-2.43C325.85,267.07,325.72,266.77,325.51,266.84Z"/><path class="cls-23" d="M328.73,265.08a2.7,2.7,0,0,0-1.1.54,3.12,3.12,0,0,0-1,.88.18.18,0,0,0,.16.27,2.11,2.11,0,0,0,1.07-.45,2.36,2.36,0,0,0,1-1.05C328.88,265.18,328.83,265.07,328.73,265.08Z"/><path class="cls-23" d="M285.34,263.7c-3.75,1-8.26,2.64-11.95.69-2-1-2.83-3.4-3.32-5.58-.65-2.91-.81-5.9-1.81-8.71-1.5-4.2-4.63-4.94-8.32-5.64-.17,0-.25.23-.1.32,2.25,1.34,4.54,1.83,6.14,4.21,1.37,2,1.62,4.84,1.92,7.28a20.15,20.15,0,0,0,1.55,6.22c3.23,6.7,10.95,4.65,16.06,1.6C285.73,264,285.55,263.64,285.34,263.7Z"/><path class="cls-23" d="M286.86,263.17a.07.07,0,0,0,0,.12c2,.08,4.14-.67,6.18-.86s4.18.07,6.27-.07c.1,0,.14-.17,0-.21C296.11,260.6,289.8,260.5,286.86,263.17Z"/><path class="cls-23" d="M257.58,243.82c-2.69-1.44-5.46-3-7.42-5.53-1.78-2.32-1.83-5.1-1.35-8,1.14-7,6.8-12.08,10.26-17.76.09-.16-.11-.34-.24-.23-5.66,4.68-11.39,11.76-12.09,19.73-.63,7.19,4.87,11.05,10.71,12.21C257.67,244.28,257.78,243.93,257.58,243.82Z"/><path class="cls-23" d="M317.87,209.6a69.67,69.67,0,0,1,9.3,4.76c.16.09.32-.17.18-.3-4.64-4.22-12.18-7.53-18.34-7.54-.07,0-.09.12,0,.15C311.82,207.94,315,208.5,317.87,209.6Z"/><path class="cls-23" d="M329.78,216.52a8.55,8.55,0,0,0,2.05,1.51.08.08,0,0,0,.1-.12,7.28,7.28,0,0,0-1.79-1.84,5.17,5.17,0,0,0-1.83-1.27c-.1,0-.16.1-.12.18A6.13,6.13,0,0,0,329.78,216.52Z"/><path class="cls-23" d="M311,220.29c2.24.17,3.91,1.35,6,2.1.15.06.24-.17.18-.29-2.11-4.18-8.88-3.16-12.48-2.44a.07.07,0,0,0,0,.13C306.67,220.42,308.85,220.14,311,220.29Z"/><path class="cls-23" d="M322.09,235.57a.2.2,0,0,0-.38-.08,14,14,0,0,1-8.36,8.45,25.89,25.89,0,0,1-8.23,1.54c-3.74.19-7.42-.76-11.13-.56-.06,0-.08.1,0,.13,6,2.85,14.7,2.19,20.76-.42C318.06,243.19,322.22,239.94,322.09,235.57Z"/><path class="cls-23" d="M292.75,244.53a20.32,20.32,0,0,0-3.56-1.25,19.52,19.52,0,0,0-3.86-1.37.07.07,0,0,0-.05.12c1.53,1.72,5.26,2.87,7.43,2.69A.11.11,0,0,0,292.75,244.53Z"/><path class="cls-23" d="M349,240.7c-.05-.08-.15,0-.15.06A22.6,22.6,0,0,1,346.54,251c-1.8,3.58-4.65,5.73-7.26,8.5a.17.17,0,0,0,.16.27C345.33,258.31,352.22,247.05,349,240.7Z"/><path class="cls-23" d="M276,231.91c.1.19.37.07.36-.14-.09-3.32-.07-6,1.3-9.13s3.91-5.13,6.52-7.07a.14.14,0,0,0-.07-.25C277.65,215.79,272.87,226,276,231.91Z"/><path class="cls-24" d="M354.37,244.54c-1.62,15.06-9.26,15.75-18.75,19.48-2.72,1.08-6.3,3.14-11.5,7.55-5.66,4.79-11.18,1.12-16.78-2.29a23.15,23.15,0,0,0-10.95-3c-4.24-.12-8.27,1.12-12.27,2.32a16.54,16.54,0,0,1,1.35,1.26.48.48,0,0,0,.18.08.51.51,0,0,0,.3,0c4.14-1.69,7.5-2.18,10.59-1.53a17,17,0,0,1,7.23,3.71c3.1,2.51,6.75,5.26,10.89,6.13a12.57,12.57,0,0,0,6.71-.4c4-1.33,7.27-3.51,10.77-5.82l1.66-1.1a23,23,0,0,1,8.49-3.54c5.8-1.18,8.32-6.13,9.86-10.3A35.16,35.16,0,0,0,354.37,244.54Z"/><path class="cls-24" d="M249,248.43c2.2,1.65,4.29,3.22,5.76,5.67a58.76,58.76,0,0,1,3.18,6.47,47.85,47.85,0,0,0,4.19,8,.33.33,0,0,0,.06.1,12.71,12.71,0,0,0,7.49,4.89,15.81,15.81,0,0,0,6.37-.11.48.48,0,0,0,.36-.34.53.53,0,0,0-.11-.5,5.75,5.75,0,0,1-1.87-3.69c-9.51,1.14-11-7-13.28-13.28-5.88-16.07-23.93-8.79-18-32.12a27.63,27.63,0,0,0-2.22,6.52,16.88,16.88,0,0,0,2.24,12.81A22.48,22.48,0,0,0,249,248.43Z"/><path class="cls-24" d="M290.86,218.45c-4.08-.1-7,2.94-8.25,4.74a.54.54,0,0,0,0,.6.41.41,0,0,0,.27.18.43.43,0,0,0,.25,0,6.06,6.06,0,0,1,1.85-.46,7.54,7.54,0,0,1,2.26.15,18.83,18.83,0,0,1,5.37,2.41,19.1,19.1,0,0,0,5.43,2.43,7.7,7.7,0,0,0,2.52.13,31.78,31.78,0,0,0,3.68-.73c2.47-.59,5.27-1.26,7.57-.78a5.55,5.55,0,0,1,2.31,1,.71.71,0,0,0,.18.08.44.44,0,0,0,.4-.13.53.53,0,0,0,.08-.63c-1.13-2-3.93-5.92-8.8-4.68-4.62,1.17-6.44.26-10.36-2.33C294.19,219.51,292.61,218.49,290.86,218.45Z"/><path class="cls-8" d="M344.38,268.56a.45.45,0,0,0-.2,0l-.22.07c-.12,0-.25.07-.38.09-4.17.86-8,3.27-11.7,5.6-5,3.15-9.72,6.13-15.34,5.73a19.1,19.1,0,0,1-2.52-.35,20.37,20.37,0,0,1-8.62-4.26c-.49-.39-1-.81-1.51-1.25-2.19-1.85-4.67-3.95-7.45-4.53a7.93,7.93,0,0,0-1-.14,18,18,0,0,0-8.07,1.54.48.48,0,0,0-.28.32.5.5,0,0,0,.05.43,4,4,0,0,1,.46,3.47c-.69,2.06-1.94,2.87-3.83,2.48a13.27,13.27,0,0,1-5.07-2.88l-.2-.17a.34.34,0,0,0-.19-.09.41.41,0,0,0-.19,0,18.38,18.38,0,0,1-8.69.53,14.4,14.4,0,0,1-8.41-5.51,1.07,1.07,0,0,1-.14-.16,57.81,57.81,0,0,1-3.9-7.35c-2.35-5-4.57-9.71-9.65-12.89a16.25,16.25,0,0,1-4.38-4.13.41.41,0,0,0-.26-.17.4.4,0,0,0-.26,0,.52.52,0,0,0-.29.5c1.5,25.62,24.63,39.44,44,43.49,1,.22,2.06.41,3.08.57,15.29,2.48,46.55,1.42,55.45-20.3a.57.57,0,0,0-.06-.52A.48.48,0,0,0,344.38,268.56Z"/><path class="cls-13" d="M286.17,289c1,.22,2.06.41,3.08.57,13.35,2.16,38.86,1.63,51.05-13-1.34.78-2.63,1.62-3.83,2.34-8.51,5.16-18.46,8.25-27.74,4.69-3.48-1.33-6.93-2.54-10.68-2.64-8.2-.22-16.09,2-24.3.58a35.74,35.74,0,0,1-20.49-12.08c-3.82-4.45-5-11.37-9.56-14.95C249.38,274.38,269.22,285.42,286.17,289Z"/><path class="cls-8" d="M309.06,241.15a.46.46,0,0,0,.34.31.41.41,0,0,0,.19,0c2.79-.72,4.62-2.21,5.46-4.42a6.28,6.28,0,0,0,0-5,6.18,6.18,0,0,0-4.43-3.21,8.12,8.12,0,0,0-3.47,0c-.49.11-1.06.28-1.68.45a23.54,23.54,0,0,1-3.35.79,12.36,12.36,0,0,1-4-.15,13.74,13.74,0,0,1-1.68-.46,27.16,27.16,0,0,1-3.62-1.75,23.47,23.47,0,0,0-6-2.59,5.44,5.44,0,0,0-3.17.16,6.13,6.13,0,0,0-3.11,4.9,7.9,7.9,0,0,0,3.33,6.58.53.53,0,0,0,.17.08.44.44,0,0,0,.41-.14c3.56-3.79,8.89-3.35,11.75-2.76.61.13,1.23.29,1.85.48l1.08.32C302.75,235.8,307.75,237.28,309.06,241.15Z"/><path class="cls-12" d="M310.59,228.78a8.12,8.12,0,0,0-3.47,0c-.49.11-1.06.28-1.68.45a23.54,23.54,0,0,1-3.35.79,12.36,12.36,0,0,1-4-.15,13.74,13.74,0,0,1-1.68-.46,27.16,27.16,0,0,1-3.62-1.75,23.47,23.47,0,0,0-6-2.59,5.44,5.44,0,0,0-3.17.16,6.13,6.13,0,0,0-3.11,4.9,5.9,5.9,0,0,0,0,.94,10.34,10.34,0,0,1,5.66-2.66c4.06-.49,7.71,2.25,11.38,3.56a21.51,21.51,0,0,0,8.66.94c3.56-.16,7.45.63,8.74,4.27l.09-.18a6.28,6.28,0,0,0,0-5A6.18,6.18,0,0,0,310.59,228.78Z"/><path class="cls-25" d="M312.9,260.24a2.91,2.91,0,0,1-.91,3.13,1.54,1.54,0,0,1-1.41.39,4.18,4.18,0,0,1-1.62-.9,18.5,18.5,0,0,1-2.67-2.63l-.27-.31c-1-1.17-3.23-3.6-2.9-5.46a2.1,2.1,0,0,1,1.19-1.53,2.3,2.3,0,0,1,1.56-.19,7.2,7.2,0,0,1,3.25,2.08.41.41,0,0,1,.12.2c.36.48.75.93,1.15,1.38A11.18,11.18,0,0,1,312.9,260.24Zm47-18.36a10.37,10.37,0,0,0-3.25-1.53l-.35-.11a.44.44,0,0,0-.39.11.56.56,0,0,0-.16.46,33,33,0,0,1,.27,5,.49.49,0,0,0,.33.48c.35.1.75.22,1.16.3.59.13,2.41.51,3.23-.78A3,3,0,0,0,359.92,241.88Zm-10.06-21.44a2.9,2.9,0,0,0-.89,0,12.31,12.31,0,0,0-3.62,1.12c-.4.17-.79.34-1.25.52l-.15.08-.25.14-.39.23c-1.26.74-3.16,1.85-3.39,3.48-.25,1.82.78,2.32,1.42,2.45,1.6.34,4.13-.76,5.35-1.29l.24-.1a17.28,17.28,0,0,0,3-1.58,3.48,3.48,0,0,0,1.51-3.26A2,2,0,0,0,349.86,220.44Zm-24.5-23.07a2.22,2.22,0,0,0-.94-.48c-2.07-.43-3.69,3-4.57,4.85-.09.21-.31.66-.31.66a15.44,15.44,0,0,0-1.54,4,2.35,2.35,0,0,0,1.64,3,2.59,2.59,0,0,0,2.47-.92,15.28,15.28,0,0,0,2.06-3.34c.28-.54.56-1.1.91-1.67a.52.52,0,0,0,.12-.17C326.45,200.26,326.5,198.33,325.36,197.37Zm-65.72,8.56a19.58,19.58,0,0,0,1.8,3,3.54,3.54,0,0,0,1.78,1.48,1.44,1.44,0,0,0,1-.15,2.88,2.88,0,0,0,1.62-2.94,12.88,12.88,0,0,0-1.48-4.27c-.27-.54-.53-1.07-.76-1.63a.94.94,0,0,0-.06-.15c-1.21-2-2.32-3.16-3.37-3.38a1.82,1.82,0,0,0-1.15.13,2.26,2.26,0,0,0-1.25,1.42c-.56,1.78.79,4.36,1.59,5.9C259.46,205.59,259.56,205.77,259.64,205.93ZM239.78,231.4a.51.51,0,0,0-.13-.41.41.41,0,0,0-.23-.13h-.14c-2.21.3-3.53.91-4,1.86a2.05,2.05,0,0,0,0,1.77,3,3,0,0,0,2.35,1.77,11.06,11.06,0,0,0,1.59.18.47.47,0,0,0,.35-.15.52.52,0,0,0,.14-.39A26.68,26.68,0,0,1,239.78,231.4Zm43.45,38.13c-.46-.36-.91-.71-1.34-1.1a.35.35,0,0,0-.11-.1,9.56,9.56,0,0,0-3.12-1.49,2.15,2.15,0,0,0-2.44.81,2.57,2.57,0,0,0-.44,1.83c.23,1.66,2.06,3.06,3.27,4,.2.16.39.3.54.43a17.22,17.22,0,0,0,3.49,2.32,4.09,4.09,0,0,0,.95.32,2,2,0,0,0,1.73-.29,2.25,2.25,0,0,0,.79-1.49,3.21,3.21,0,0,0-.46-2.39A12.37,12.37,0,0,0,283.23,269.53Zm45.65-42.95c-.22-.56-.44-1.12-.64-1.75-1.13-2.44-2.21-3.74-3.31-4a1.69,1.69,0,0,0-1.16.18c-2.51,1.33-.92,5.19-.07,7.26.1.26.2.48.27.68a18.93,18.93,0,0,0,1.38,3l.12.19c.36.61.85,1.44,1.64,1.61l.14,0a2.28,2.28,0,0,0,1.79-.61,2.78,2.78,0,0,0,.87-1.78A10.64,10.64,0,0,0,328.88,226.58Zm-64.27,2.92a12.14,12.14,0,0,0-2.95-2.71c-.42-.3-.83-.6-1.27-.95a10.91,10.91,0,0,0-3.32-1.5c-1.6-.34-2.29.39-2.59,1.06-1.12,2.51,1.51,4.37,3.09,5.47l.63.46a17.11,17.11,0,0,0,3.57,2.17,3.2,3.2,0,0,0,.55.18,2.31,2.31,0,0,0,2.55-1.12A2.86,2.86,0,0,0,264.61,229.5Zm72.66,19.66h0a13.32,13.32,0,0,0-3.45-.06c-.53,0-1.07.07-1.67.08-2.47.38-4,1-4.65,2a2.1,2.1,0,0,0-.33,1.55,2.67,2.67,0,0,0,2.38,2.23,13.16,13.16,0,0,0,4,0c.25,0,.48-.06.68-.07a15.26,15.26,0,0,0,3.22-.58,2.65,2.65,0,0,0,2.09-2.55A2.79,2.79,0,0,0,337.27,249.16Zm-59-4a2.6,2.6,0,0,0-1.56-1l-.22,0a11.06,11.06,0,0,0-4,.49c-.57.15-1.14.29-1.76.39a.34.34,0,0,0-.2,0c-2.15.75-3.42,1.72-3.87,2.94a2.44,2.44,0,0,0-.06,1.94,2,2,0,0,0,1.49,1c1.81.38,4.72-.41,5.68-.67a17.41,17.41,0,0,0,2.86-1c.64-.31,2-1,2.23-2.12A2.27,2.27,0,0,0,278.22,245.18Zm10-32c1.82.38,4.76-.47,5.75-.76a16.42,16.42,0,0,0,2.85-1c1.42-.71,2.19-1.52,2.3-2.41a2.23,2.23,0,0,0-.94-2,2.75,2.75,0,0,0-1.31-.7l-.26,0a11.07,11.07,0,0,0-4,.56,17.91,17.91,0,0,1-1.75.42.46.46,0,0,0-.2,0c-2.14.79-3.39,1.78-3.83,3a2.41,2.41,0,0,0,0,1.92A2,2,0,0,0,288.26,213.18Z"/><path class="cls-12" d="M263.41,276.06c5.1,3.35,10.71,2.47,16.3.89l1.31-.4a19.44,19.44,0,0,1-2.28-1.67l-.2-.17a.34.34,0,0,0-.19-.09.41.41,0,0,0-.19,0,18.38,18.38,0,0,1-8.69.53,14.4,14.4,0,0,1-8.41-5.51,1.07,1.07,0,0,1-.14-.16,57.81,57.81,0,0,1-3.9-7.35c-2.35-5-4.57-9.71-9.65-12.89a16.25,16.25,0,0,1-4.38-4.13.41.41,0,0,0-.26-.17.4.4,0,0,0-.26,0,.52.52,0,0,0-.29.5c.06,1,.15,1.89.27,2.81.31.32.62.63.94.94a45.89,45.89,0,0,1,7.64,9.09C254.68,264.27,257.55,272.21,263.41,276.06Z"/><path class="cls-12" d="M344.38,268.56a.45.45,0,0,0-.2,0l-.22.07c-.12,0-.25.07-.38.09-4.17.86-8,3.27-11.7,5.6-5,3.15-9.72,6.13-15.34,5.73a19.1,19.1,0,0,1-2.52-.35,20.37,20.37,0,0,1-8.62-4.26c-.49-.39-1-.81-1.51-1.25-2.19-1.85-4.67-3.95-7.45-4.53a7.93,7.93,0,0,0-1-.14,18,18,0,0,0-8.07,1.54.48.48,0,0,0-.28.32.5.5,0,0,0,.05.43,4.06,4.06,0,0,1,.65,2.55c.63-.2,1.27-.41,1.91-.6,2-.6,4.09-1.31,6.19-.94,1.88.34,3.44,2,4.82,3.25,4.53,4.21,10.45,6.12,16.4,6.62,6.49.55,11.89-3.61,17.34-7a34.15,34.15,0,0,1,8.62-4l.53-.15c.38-.73.73-1.49,1.06-2.27a.57.57,0,0,0-.06-.52A.48.48,0,0,0,344.38,268.56Z"/><path class="cls-26" d="M318.11,208a2.08,2.08,0,0,0,1.53,1.34,2.59,2.59,0,0,0,2.47-.92,15.28,15.28,0,0,0,2.06-3.34c.28-.54.56-1.1.91-1.67a.52.52,0,0,0,.12-.17c1.25-3,1.3-4.94.16-5.9a2.27,2.27,0,0,0-.91-.47,14.6,14.6,0,0,1-1.44,5.74C321.84,205.28,320.3,207.15,318.11,208Z"/><path class="cls-26" d="M326.5,229.71a14.4,14.4,0,0,1-2.69-8.68h0c-2.51,1.33-.92,5.19-.07,7.26.1.26.2.48.27.68a18.93,18.93,0,0,0,1.38,3l.12.19c.36.61.85,1.44,1.64,1.61l.14,0a2.28,2.28,0,0,0,1.79-.61,2.75,2.75,0,0,0,.71-1.11A5.28,5.28,0,0,1,326.5,229.71Z"/><path class="cls-26" d="M360.76,245.84a2.74,2.74,0,0,0,.42-1.82,10.65,10.65,0,0,1-5.17-.48c0,.78.05,1.54,0,2.3a.49.49,0,0,0,.33.48c.35.1.75.22,1.16.3C358.12,246.75,359.94,247.13,360.76,245.84Z"/><path class="cls-26" d="M345.93,225.14a27.38,27.38,0,0,1-5.93,2.14,1.7,1.7,0,0,0,1.34,1.15c1.6.34,4.13-.76,5.35-1.29l.24-.1a17.28,17.28,0,0,0,3-1.58,3.48,3.48,0,0,0,1.51-3.26,2,2,0,0,0-.13-.43A20.05,20.05,0,0,1,345.93,225.14Z"/><path class="cls-26" d="M339.56,251.74a2.52,2.52,0,0,0-.11-.62l-.36.18a21.42,21.42,0,0,1-5.07,1.33c-2.11.37-4.93.71-6.88-.28a2.8,2.8,0,0,0,0,.4,2.67,2.67,0,0,0,2.38,2.23,13.16,13.16,0,0,0,4,0c.25,0,.48-.06.68-.07a15.26,15.26,0,0,0,3.22-.58A2.65,2.65,0,0,0,339.56,251.74Z"/><path class="cls-26" d="M312.81,262.23a5.89,5.89,0,0,1-3.68-1.74c-1.72-1.57-4.24-4.66-4.76-7.58l-.06,0a2.1,2.1,0,0,0-1.19,1.53c-.33,1.86,1.85,4.29,2.9,5.46l.27.31a18.5,18.5,0,0,0,2.67,2.63,4.18,4.18,0,0,0,1.62.9,1.54,1.54,0,0,0,1.41-.39A3.4,3.4,0,0,0,312.81,262.23Z"/><path class="cls-26" d="M286.87,210.23s0,0,0,.06a2.41,2.41,0,0,0,0,1.92,2,2,0,0,0,1.44,1c1.82.38,4.76-.47,5.75-.76a16.42,16.42,0,0,0,2.85-1c1.42-.71,2.19-1.52,2.3-2.41a1.83,1.83,0,0,0-.3-1.2,7.73,7.73,0,0,1-2.5,1.78,19,19,0,0,1-3.93,1.23A7.7,7.7,0,0,1,286.87,210.23Z"/><path class="cls-26" d="M259.35,205.39c.11.2.21.38.29.54a19.58,19.58,0,0,0,1.8,3,3.54,3.54,0,0,0,1.78,1.48,1.44,1.44,0,0,0,1-.15,3.07,3.07,0,0,0,.66-.45l-.13-.09a14.5,14.5,0,0,1-3.11-4.27,18,18,0,0,1-2.45-7.48l-.17,0a2.26,2.26,0,0,0-1.25,1.42C257.2,201.27,258.55,203.85,259.35,205.39Z"/><path class="cls-26" d="M286.45,275.19a11.68,11.68,0,0,1-4.73-1.65,17.6,17.6,0,0,1-4.45-4,8.77,8.77,0,0,1-1.12-1.81,2.55,2.55,0,0,0-.37,1.71c.23,1.66,2.06,3.06,3.27,4,.2.16.39.3.54.43a17.22,17.22,0,0,0,3.49,2.32,4.09,4.09,0,0,0,.95.32,1.89,1.89,0,0,0,2.42-1.34Z"/><path class="cls-26" d="M239.51,236.28a.52.52,0,0,0,.14-.39c0-.76-.05-1.51,0-2.26l-.17.06A8.16,8.16,0,0,1,236,234a2.18,2.18,0,0,1-1-.36,2.4,2.4,0,0,0,.17.81,3,3,0,0,0,2.35,1.77,11.06,11.06,0,0,0,1.59.18A.47.47,0,0,0,239.51,236.28Z"/><path class="cls-26" d="M276.56,249.24c.64-.31,2-1,2.23-2.12a2,2,0,0,0-.16-1.25c-.12.11-.25.23-.39.34a13,13,0,0,1-3.95,2,11.68,11.68,0,0,1-7.83.23,2.19,2.19,0,0,0,.07,1.51,2,2,0,0,0,1.49,1c1.81.38,4.72-.41,5.68-.67A17.41,17.41,0,0,0,276.56,249.24Z"/><path class="cls-26" d="M262.32,233.68a2.31,2.31,0,0,0,2.55-1.12,2.72,2.72,0,0,0,.12-2.35,6.64,6.64,0,0,1-5.59-.23,15.56,15.56,0,0,1-3.88-2.75,3.88,3.88,0,0,1-1.08-1.72c-1,2.45,1.58,4.27,3.13,5.36l.63.46a17.11,17.11,0,0,0,3.57,2.17A3.2,3.2,0,0,0,262.32,233.68Z"/><path class="cls-20" d="M315.6,239.32a7,7,0,0,0,1.75-4.56,11,11,0,0,0,0-3.79c-.55-2.91-2.32-6.88-5.44-7-.1,0-.11.14-.06.2a26.51,26.51,0,0,1,2.54,3.59c-3.76-2.91-9.8-.07-13.87.39-5.61.63-9.71-5.63-15.57-5.13a6.27,6.27,0,0,0-2,.5,24.63,24.63,0,0,1,3.32-3.79.07.07,0,0,0-.05-.12c-4.39.54-7.45,5.7-7.19,10.31,0,3.36,2.32,7.16,5.79,9.35,4.8,3,11.13,3.83,16.6,4.12C306.62,243.65,311.68,243.61,315.6,239.32Zm-31.76-13.63c3.65-1.36,9,3.05,12.41,4.22a12.5,12.5,0,0,0,5.88.63,51.5,51.5,0,0,0,5.07-1.24c4.52-1,9.48,2.09,7.42,7.55-.85,2.27-2.77,3.51-5.13,4.12-1.53-4.51-7.49-5.87-11.34-7.05-4.63-1.41-10.37-1.51-14,2.41C280.32,233.4,279.59,228.31,283.84,225.69Zm1.89,11.68-.11-.07c6.55-3.13,17.34-2.36,22,4-4.51.56-9.9-.53-12.67-1A32.14,32.14,0,0,1,285.73,237.37Z"/><path class="cls-20" d="M303.3,251.46c-3.79,2.51-.92,6.73,1,9.14,2.27,2.81,6.41,7.49,9.57,3.17,1.56-2.12.75-4.42-.64-6.38C311.37,254.33,306.68,249.22,303.3,251.46Zm3.32,8.42c-.91-1.06-4.87-5.07-2.12-6.5,1.24-.65,2.85.41,4.31,1.82a.55.55,0,0,0,.08.15c1.25,1.65,2.9,3,3.58,5.07a2.41,2.41,0,0,1-.77,2.57c-.85.78-1.92-.11-2.56-.6A18.11,18.11,0,0,1,306.62,259.88Z"/><path class="cls-20" d="M362.69,243c-.45-2-2.17-3.07-4-3.74a16.23,16.23,0,0,0-2.87-1,40.35,40.35,0,0,0-4.44-11.67c1.76-1.43,2.81-3.38,1.5-6-1.14-2.3-3.44-2.28-5.66-1.56-.37.09-.76.2-1.17.32a73.28,73.28,0,0,0-19.72-14.75c1.43-3.19,2.16-7-.15-8.9-3.48-3-6.35,2.59-7.75,5.17l0,0c-17.37-6.85-35.73-7.6-53.42-.35-1.54-2.66-3.72-5-6.13-4.32a4,4,0,0,0-2.74,2.89c-.5,1.94.22,3.66,1,5.36-8.07,5.31-15.44,14.35-17.43,24.63-2.71.31-6.44,1.24-6.28,4.94.15,3.51,3.52,4,6.07,4.2a17,17,0,0,0,1.31,4h0C240.1,271.42,266,287,288.9,291.24c18.31,3.39,50.42.08,57.85-23.2,4.91-2.77,7.12-9.2,8.7-15a30,30,0,0,0,.89-4.82c1.71.41,3.6.66,5.11-.52C362.78,246.61,363.05,244.58,362.69,243Zm-3-.7a2.44,2.44,0,0,1,.73,3.27c-.73,1.14-2.63.65-3.89.28a33.4,33.4,0,0,0-.28-5.11A11.24,11.24,0,0,1,359.66,242.29Zm-9.94-17.24a16.71,16.71,0,0,1-2.94,1.52c-1.35.58-6.93,3.18-6.41-.52.21-1.55,2.43-2.67,3.54-3.35l.39-.21a18.62,18.62,0,0,1,4.7-1.59C351.56,220.64,351.63,223.74,349.72,225.05Zm-24.65-27.28c1.14.95.61,3.16-.28,5.3a.47.47,0,0,0-.13.15c-1,1.65-1.62,3.46-2.88,4.89s-3.77.81-3.33-1.62a15.22,15.22,0,0,1,1.54-4C320.77,201,322.82,195.87,325.07,197.77Zm-61.92,3.83a.09.09,0,0,0,0,.05c.78,1.91,2,3.64,2.22,5.79a2.36,2.36,0,0,1-1.36,2.43c-1,.5-1.78-.63-2.27-1.28a18.35,18.35,0,0,1-1.71-2.91c-.78-1.55-3.44-5.93-.86-7.15C260.52,197.9,262,199.61,263.15,201.6Zm-27.51,32.67c-.84-2.09,2.1-2.71,3.69-2.92a26.85,26.85,0,0,0-.14,4.58C237.81,235.85,236.23,235.71,235.64,234.27Zm53.68,54.78c-21.26-3.45-45.18-17.88-46.68-43.61a16.56,16.56,0,0,0,4.49,4.25c7.49,4.67,8.7,12.95,13.42,20.1a1.79,1.79,0,0,0,.22.25c4.61,5.85,10.66,7,17.49,5.07l.19.16c2.72,2.31,7.83,5.51,9.61.17a4.5,4.5,0,0,0-.5-3.91,17.33,17.33,0,0,1,7.88-1.51c3.69.28,6.88,3.58,9.69,5.83a20,20,0,0,0,11.37,4.69c10.11.72,17.64-9.38,27.16-11.33.21,0,.41-.11.62-.16C335.83,289.67,306.44,291.82,289.32,289.05Zm-12.73-21.11c.92-1.36,3-.47,5,.81l0,0c1.4,1.29,3.06,2.22,4.15,3.88a2.71,2.71,0,0,1,.38,2c-.3,1.84-1.84,1.55-2.83,1.08a16.22,16.22,0,0,1-3.4-2.26C278.59,272.44,275.05,270.21,276.59,267.94Zm75.14-11.05c-1.85,5-4.44,9-9.52,10a23.55,23.55,0,0,0-8.64,3.61c-4,2.63-7.78,5.34-12.33,6.86-6.65,2.23-12.18-1.59-17.2-5.65-6-4.86-11.28-5.09-18.24-2.25l0,0h0c-2.62-2.69-7.73-6.29-10.52-3.31-2.29,2.45-1,4.89.77,6.83-5.21,1-9.76,0-13.44-4.62l0,0c-3.09-4.44-4.59-9.87-7.38-14.52-2.95-4.93-8.42-6.45-11.55-11.23-8.1-12.42,5-29.35,14.52-35.84,1.6,3.32,4.23,7.39,7.82,4.49,2-1.61,1.77-4.08.9-6.37a19.23,19.23,0,0,0-.73-2c16.94-6.82,34.54-6.17,51.17.38-1.3,3.26-1.82,7.12,2.19,8,2.18.47,3.8-1.23,5-3.29.22-.32.45-.68.68-1a72.52,72.52,0,0,1,18.37,13.47c-2.8,1.37-5.4,3.61-5.28,6.61a3.81,3.81,0,0,0,2.47,3.19c2.23.81,4.68-.56,6.79-1.41a19.07,19.07,0,0,0,1.81-.83A33.46,33.46,0,0,1,351.73,256.89Z"/><path class="cls-20" d="M329.77,234.79c2.11-1.37,2.07-3.88,1.4-6.27-.79-3.87-3.25-9.57-7.16-9.43-1.42.06-2.53,1.44-3,2.76-.86,2.23.39,4.78,1.07,6.82C323.24,232.24,325.59,237.52,329.77,234.79Zm-1.93-9.73c.62,2,1.81,4,1.62,6.28a2.06,2.06,0,0,1-2.15,1.93c-.74-.08-1.21-1-1.58-1.61a18.41,18.41,0,0,1-1.34-2.88c-.67-1.76-2.8-6-.43-7.29C325.39,220.73,326.78,222.78,327.84,225.06Z"/><path class="cls-20" d="M257.58,233.11c3,2.23,7.63,4.44,9.18-.77.67-2.29-.71-4.17-2.45-5.6-2.73-2.71-8.08-6.05-11-2.71C250.13,227.7,255.42,231.48,257.58,233.11Zm2.58-6.84c1.4,1.14,3,2,4.08,3.54,1.36,1.92-.22,4.1-2.3,3.23a16.26,16.26,0,0,1-3.48-2.13c-1.43-1.07-4.66-2.87-3.57-5.3C255.62,224,258,225,260.16,226.27Z"/><path class="cls-20" d="M341.15,250.67c-.82-2.51-2.83-3.28-5-3.35-3.66-.35-10.26.47-10.66,5.11-.43,4.94,5.54,4.44,8.33,4.31S342.69,255.43,341.15,250.67Zm-13.53,2c-.29-1.79,2.13-2.6,4.59-3a25,25,0,0,1,5,0c2.14.41,2.89,3.29.17,4.17a15.12,15.12,0,0,1-3.12.55C332.38,254.54,328.06,255.39,327.62,252.65Z"/><path class="cls-20" d="M274.47,242.47c-3.45.3-9.86,2.18-9.76,6.38.13,5.33,5.84,4,9,3.25,2.92-.72,8.53-2.83,6.25-7.29C278.78,242.5,276.65,242.13,274.47,242.47Zm1.92,6.31a15.63,15.63,0,0,1-2.79,1c-1.37.38-8,2.19-6.59-1.6.46-1.24,1.94-2.07,3.58-2.65a.41.41,0,0,0,.19,0c1.87-.33,3.69-1.11,5.6-.88a2.16,2.16,0,0,1,1.49.89C279.29,247.31,277.38,248.31,276.39,248.78Z"/><path class="cls-20" d="M294.68,204.65c-3.45.35-9.85,2.34-9.7,6.53.21,5.36,5.87,3.89,9,3.12,2.92-.72,8.49-3,6.18-7.39C299,204.62,296.85,204.27,294.68,204.65Zm2,6.27a15.63,15.63,0,0,1-2.77,1c-1.31.38-8,2.34-6.64-1.48.45-1.26,1.92-2.12,3.55-2.72H291c1.87-.36,3.68-1.18,5.59-1a2.2,2.2,0,0,1,1.33.62C299.94,209.11,297.6,210.46,296.68,210.92Z"/><path class="cls-20" d="M292.26,201.05c7.37.26,14.36,2.08,21.54,3.54a.09.09,0,0,0,.05-.16c-6.51-2.74-13.73-3.75-20.71-4.15-6.43-.37-13.77-.07-19.9,2.53-.08,0-.06.18,0,.16C279.68,201.85,285.77,200.83,292.26,201.05Z"/><path class="cls-20" d="M329,270.82a.1.1,0,0,0,.08.17,26.14,26.14,0,0,0,5.94-3.26,35.36,35.36,0,0,1,7.86-3.46.1.1,0,0,0,0-.19C338.18,263.21,332.73,268.16,329,270.82Z"/><path class="cls-20" d="M349.08,232.19c3.15,9.43,4.58,25.18-4.75,31.49-.1.07-.05.29.08.26,5-1.12,6.72-8.68,7.36-13.31.81-5.93.59-13.46-2.44-18.58C349.25,231.9,349,232,349.08,232.19Z"/><path class="cls-20" d="M268.82,270a11.54,11.54,0,0,1-4.49-4.13c-1.86-2.67-2.83-6-4.05-9.09-2.11-5.31-5.41-8.25-9.74-11.33a14.23,14.23,0,0,1-5.92-7.72c-1.11-3.69-.18-7.79,1.14-11.3,2.33-6.21,6.6-11,10.63-15.95.12-.14-.06-.38-.21-.25-8.25,6.86-18.25,23.28-9.29,33.27,2.06,2.29,4.88,3.74,7.23,5.65,3.16,2.56,4.77,6.23,6.25,10.11,2.21,5.81,5.53,12.74,12.3,12.45a.09.09,0,0,0,0-.17C271.46,270.92,270.1,270.59,268.82,270Z"/><path class="cls-20" d="M322.5,274.37c-4.06.95-7.41.95-11.09-1.2-2.61-1.53-4.89-3.66-7.46-5.28-4.49-2.82-10.32-3.76-15.23-1.4-.15.07-.12.34,0,.31,3.36-.44,6.28-1,9.62-.18,3.71.95,6.7,3.16,9.77,5.49,4.26,3.22,9.44,5.76,14.42,2.43C322.67,274.48,322.59,274.35,322.5,274.37Z"/><path class="cls-20" d="M333.89,215.78c2.08,1.63,3.95,3.49,6.17,4.91.1.07.24-.09.16-.2a31.36,31.36,0,0,0-6.37-6c-2.36-1.83-5.11-3.84-8.08-4.14a.08.08,0,0,0,0,.14C328.47,212.24,331.27,213.74,333.89,215.78Z"/><path class="cls-20" d="M325.15,273.12a2.67,2.67,0,0,0-1.78.88.08.08,0,0,0,.06.13,2.66,2.66,0,0,0,1.79-.85C325.27,273.22,325.22,273.1,325.15,273.12Z"/><path class="cls-20" d="M271.78,203.26a.1.1,0,0,0,0-.18,3.33,3.33,0,0,0-1.77.09,3.08,3.08,0,0,0-1.77.92s0,.12,0,.13a3.4,3.4,0,0,0,1.48-.34C270.45,203.67,271.11,203.52,271.78,203.26Z"/><text/><text/><path class="cls-27" d="M102.14,180.51c-.47-1.09-.2-2.3.81-3.6a4.28,4.28,0,0,1,.73-.82,99.62,99.62,0,0,1-5.58-8.32c-.78-1.4-1.33-2.46-1.64-3.19a15.39,15.39,0,0,1-1.3-6.63,13.16,13.16,0,0,1,6.15-10.52,8.83,8.83,0,0,1,9-.54,9.68,9.68,0,0,1,2.22,1.68,13.7,13.7,0,0,1,2.81,4.82c.3.82.77,2.6,1.41,5.31,1,4.18,1.69,7.14,2.09,8.86l4-1.65,4.08-1.65q-2.06-7.11-3.36-13.32a23.61,23.61,0,0,1-.4-8.94,10.08,10.08,0,0,1,4-6.08,6.89,6.89,0,0,1,1.16-.67c2.94-1.37,5.46-.87,7.5,1.43a10.13,10.13,0,0,1,1.93,3.74,35.7,35.7,0,0,1,.93,7.52c.12,2.61.51,6.44,1.21,11.47a.55.55,0,0,0,.27,0,3.35,3.35,0,0,1,3.05,1.55,2.46,2.46,0,0,1,.33.7c.37,1.28-.14,2.63-1.51,4.07a13.64,13.64,0,0,1-1.23.95q.69,5.34.89,10.19c.06,3-.38,5.11-1.31,6.44a4.56,4.56,0,0,1-1.58,1.42,3.89,3.89,0,0,1-4.66-1,12.79,12.79,0,0,1-2.4-4.59l-.77-2.28q-1.23-3.64-1.77-5.45c-2.16.75-5.1,1.7-8.81,2.95.49,2.08,1.16,5.14,2,9.18.68,4.14,0,6.83-2.08,8.14a4.3,4.3,0,0,1-4.16,0,10.74,10.74,0,0,1-3.19-3.28c-1.32-1.81-3.28-4.49-5.93-8-1.62,1-3,1.32-4.05.86A2.21,2.21,0,0,1,102.14,180.51Zm8.69-25.85a1,1,0,0,0,.31-.71l-.13-.34a8.1,8.1,0,0,0-4.52-4.29,3.41,3.41,0,0,0-3-.1,1.23,1.23,0,0,0-.51,1.54,3.63,3.63,0,0,0,2.29.77.33.33,0,0,0,.22,0,4.5,4.5,0,0,1,2.89,2.21c.74.93,1.44,1.31,2.09,1.12Zm24.28-10.73a.73.73,0,0,0,.29-.66s0-.09-.05-.17v-.2c-.06-.22-.13-.43-.19-.64q-1.21-4.12-4.5-4.88a.71.71,0,0,1-.23,0,2.47,2.47,0,0,0-1.44.21,1.22,1.22,0,0,0-.63,1.41,5.21,5.21,0,0,0,1.89,1l.4.15a3.7,3.7,0,0,1,1.39,1.07,10.16,10.16,0,0,1,.68,1.07q1.08,1.95,2.07,1.77Z"/><path class="cls-27" d="M146.1,137.74c-2.73,1-4.29.92-4.71-.43s.5-2.58,2.53-4.09a.7.7,0,0,1,.18-.13l.06,0,.11-.1-.17-.65c-.8-3-.25-5.18,1.69-6.49a6.05,6.05,0,0,1,1.08-.54c2-.71,3.8,0,5.4,2.14a42.72,42.72,0,0,1,10.32-5c4.94-1.51,8.41-1.48,10.32-.07a2.76,2.76,0,0,1,1.17,1.83c.47,2.82-1.57,5.1-6.07,7-.8.32-2,.72-3.49,1.2-2.34.75-5.28,1.52-8.83,2.38q.65,1.83,1.62,5.4a16.33,16.33,0,0,1,4.29-2.23c2.89-1,5-.86,6.37.25a2.74,2.74,0,0,1,.93,1.56c.62,3.27-2.7,5.91-9.82,8.4.18,1,.46,2.41.83,4.33s.59,3.39.77,4.35a28.93,28.93,0,0,1,9.16-5c6-1.85,9.73-.69,11.1,3.19a8.67,8.67,0,0,1,.39,1.41,8.47,8.47,0,0,1-1,5.71c-1.11,1.78-3.19,3.15-6.25,4.17l-1,.3c-1.59.5-5,1.17-10.16,2.24a39.45,39.45,0,0,0-6.48,1.77l-1.73.67a4.16,4.16,0,0,1-1.6.38,3,3,0,0,1-2.43-2.33c-.46-1.67.08-3.31,1.64-4.88l1-1c.48-.45.83-.78,1-1a11.26,11.26,0,0,1-.78-2.28c-.29-1.08-.57-2.16-.85-3.23-.53-2-1.12-4.08-1.79-6.11-1,.38-1.65.18-2-.62a1,1,0,0,1-.15-.33,2.8,2.8,0,0,1,.92-2.63C148.13,143,146.93,139.84,146.1,137.74Zm18.08,1.81c-.48.24-.7.55-.66.92,0,0,0,.09.1.16s.24.2.5.15l.31-.1a2,2,0,0,0,.33,0,.93.93,0,0,1,.49.1,1.28,1.28,0,0,0,.68.1l.19-.06a.49.49,0,0,0,.24-.46l-.07-.3c-.27-.42-.93-.6-2-.51ZM164,124.24c-.77.28-1.16.66-1.15,1.12.28.64,1.13.73,2.55.29l.07,0a6.37,6.37,0,0,1,3.09,0,4.42,4.42,0,0,0,1.53.12c.6-.21.9-.47.89-.76-.19-.71-1.11-1.08-2.77-1.1A17.07,17.07,0,0,0,164,124.24ZM177.86,157a.87.87,0,0,0,.52-.91c-.24-1-1.15-1.7-2.74-2a17.61,17.61,0,0,0-2.54-.27,8.06,8.06,0,0,0-1.33.09,1.28,1.28,0,0,0-1,1.2,1.12,1.12,0,0,0,0,.32,1.22,1.22,0,0,0,1.68,1,4,4,0,0,0,.79-.18,4.38,4.38,0,0,1,2.94.41A3.42,3.42,0,0,0,177.86,157Z"/><path class="cls-27" d="M185.25,155.1a3.61,3.61,0,0,1-4-1.12,4,4,0,0,1-.75-1.69l0-.24a1.45,1.45,0,0,0,0-.38c0-1.9,1.29-3.46,3.78-4.63.48-.21,1.57-.62,3.26-1.23q.27-2.72.58-8.17c.34-5.1.72-8.92,1.1-11.47.75-4.84,2.49-8.26,5.2-10.2a7.32,7.32,0,0,1,3-1.32c2.36-.43,4.88.37,7.48,2.41a2.32,2.32,0,0,0,.3.26c3.46,2.9,6.61,7.67,9.39,14.26.32.79.73,1.79,1.22,3,.22.63.58,1.56,1.06,2.78.69,1.7,1.18,3,1.46,3.86,4.71,0,7.39,1.2,8,3.53a5.17,5.17,0,0,1,.18,1.09,3.63,3.63,0,0,1-2.17,3.85,4.91,4.91,0,0,1-1.52.39,10.06,10.06,0,0,1-1.9,0,45.66,45.66,0,0,1,.76,4.62c.2,2.75-.48,4.73-2,6a4.24,4.24,0,0,1-2.2,1c-2.77.3-5.16-1.24-7.26-4.64a52.63,52.63,0,0,1-4.47-8.19,38.75,38.75,0,0,0-7,.64,30.22,30.22,0,0,0-7.25,2.39q-.25,3.35-.46,6.69-.21,3.81-2.19,4.35c-1,.24-1.71-.19-2.19-1.29a4.8,4.8,0,0,1-.19-.77,11.31,11.31,0,0,1,0-2,20.79,20.79,0,0,1,.13-2.17,21,21,0,0,0,.21-2.13A8.4,8.4,0,0,1,185.25,155.1Zm13.25-30.24a1.34,1.34,0,0,0-1.46-1c-.73.18-1.27.82-1.62,1.93a116.68,116.68,0,0,0-3,16.75c-.07.68-.13,1.26-.19,1.73q3.19-.87,6.43-1.5c2-.38,3.58-.63,4.62-.77a.53.53,0,0,0-.16-.29,2.51,2.51,0,0,1-.1-.29c-.27-.83-.94-3.8-2-8.93A32.08,32.08,0,0,0,198.5,124.86Zm5.6-3a.67.67,0,0,0,.47-.57l0-.37a4,4,0,0,0-3.13-3.28,6.3,6.3,0,0,0-1-.2,2.45,2.45,0,0,0-.54,0,1.12,1.12,0,0,0-.87,1.22,4.89,4.89,0,0,0,2,1.59l.36.25a13.11,13.11,0,0,0,1.88,1.17,2.13,2.13,0,0,0,.62.15l.2,0A.19.19,0,0,0,204.1,121.91Zm20.17,24.33a.63.63,0,0,0,.46-.54l0-.36a3.7,3.7,0,0,0-3.12-2.67c-.63-.1-1,.1-1,.6a1.14,1.14,0,0,0,.08.33.83.83,0,0,0,.25.29,2,2,0,0,0,.26.19l.35.14.26.1a7.91,7.91,0,0,1,1.54,1.46A1.69,1.69,0,0,0,224.27,146.24Z"/><path class="cls-27" d="M262.1,108c1.4.07,2.28.92,2.62,2.55a8.61,8.61,0,0,1,.16,1.18,18.88,18.88,0,0,1-.57,2.62c-.54,2.19-1.29,5.54-2.22,10.06-1.79,9-3.42,15.64-5,19.91a58.18,58.18,0,0,1-2.39,5.6,12.16,12.16,0,0,1-2.92,4.14A7.81,7.81,0,0,1,247,155.6a12.82,12.82,0,0,1-6.13-1.68c-3.43-2-6.45-5.43-9.13-10.37a52.75,52.75,0,0,1-6.55-20.26l0-.68c-.34-5.81,1.25-9.59,4.84-11.23.31-.14.62-.26.93-.37a8.9,8.9,0,0,1,1.68-.28,8.26,8.26,0,0,1,6.49,2.61,1.63,1.63,0,0,0,.28.3c1.65,1.75,2.82,4.38,3.53,7.86.33,1.6.87,5.67,1.58,12.24a56,56,0,0,0,2.79,13,1.41,1.41,0,0,0,.92.74q.56-.12.93-1.11,2.91-6.47,5.28-18.68a133.62,133.62,0,0,1,3.81-16.11C259.1,109.18,260.41,108,262.1,108Zm-24.27,14.44c.39-.1.58-.48.57-1.13a8.8,8.8,0,0,0-1.22-3.35,10.29,10.29,0,0,0-2.48-2.73,4,4,0,0,0-1.77-.64c-.76.2-1.14.58-1.16,1.11a3.83,3.83,0,0,0,1.67,1.76,1,1,0,0,0,.27.17,6.9,6.9,0,0,1,2.09,3c.52,1.09,1.09,1.7,1.7,1.84Zm23.23-11.58a1.19,1.19,0,0,0-1.19,1.24,1.58,1.58,0,0,0,1.05,1.09,1.26,1.26,0,0,0,1.45-1.22c0-.54-.33-.89-1.05-1A.51.51,0,0,0,261.06,110.81Z"/><path class="cls-27" d="M271.62,119.25c-2.86-.27-4.29-1.1-4.26-2.54.05-1.27,1.26-2.17,3.62-2.64a.46.46,0,0,1,.2,0h.07l.14,0,0-.68c.18-3.15,1.36-4.92,3.58-5.25a5,5,0,0,1,1.16,0c2.09.24,3.56,1.72,4.39,4.42a40,40,0,0,1,11.16,0c5.07.82,8.28,2.41,9.63,4.57a3.29,3.29,0,0,1,.53,2.23c-.43,2.84-3,4-7.8,3.77-.84,0-2-.21-3.62-.45-2.4-.36-5.38-1-8.95-1.77,0,1.33,0,3.24-.15,5.75a14.57,14.57,0,0,1,4.68-.14c3,.41,5,1.47,5.86,3.1a3.09,3.09,0,0,1,.39,1.87c-.43,3.31-4.32,4.28-11.73,3.37-.12,1-.31,2.44-.55,4.4s-.49,3.41-.61,4.38a26.22,26.22,0,0,1,10.07-.54c6.15,1,9.27,3.73,9.36,7.95a9.12,9.12,0,0,1-.07,1.48,7.46,7.46,0,0,1-2.69,4.85c-1.58,1.16-3.93,1.49-7.09,1.06l-1-.16c-1.64-.25-5-1.15-10.16-2.5a41.24,41.24,0,0,0-6.6-1.29l-1.81-.15a4.27,4.27,0,0,1-1.62-.38,3.62,3.62,0,0,1-1.55-3.26,4.15,4.15,0,0,1,3-3.79l1.26-.45c.6-.2,1-.35,1.27-.45a12.81,12.81,0,0,1,0-2.47c.07-1.13.14-2.26.2-3.38.13-2.14.2-4.29.21-6.48a1.65,1.65,0,0,1-1.72-1.5,1.23,1.23,0,0,1,0-.38,2.38,2.38,0,0,1,1.67-2Q271.83,122.73,271.62,119.25Zm16.32,9.85c-.53,0-.83.19-.91.55a.76.76,0,0,0,.05.19c0,.17.17.29.42.37l.32,0,.32.11a1,1,0,0,1,.42.31,1.6,1.6,0,0,0,.61.4l.2,0a.42.42,0,0,0,.36-.32l0-.31c-.12-.51-.68-1-1.69-1.37Zm4.55-14.29c-.81-.09-1.28.09-1.42.53.06.71.83,1.18,2.29,1.41h.07a6.9,6.9,0,0,1,2.89,1.35,5,5,0,0,0,1.39.81c.62.07,1,0,1.05-.31.05-.74-.69-1.5-2.23-2.27A18.34,18.34,0,0,0,292.49,114.81Zm2.83,36.65a.72.72,0,0,0,.76-.61c.1-1.06-.54-2.1-1.93-3.09a19.22,19.22,0,0,0-2.29-1.39,8.27,8.27,0,0,0-1.26-.52,1.08,1.08,0,0,0-1.33.66,1,1,0,0,0-.09.29,1.43,1.43,0,0,0,1.25,1.69,4.49,4.49,0,0,0,.79.2,5,5,0,0,1,2.61,1.69A4.08,4.08,0,0,0,295.32,151.46Z"/><path class="cls-27" d="M316.25,150.19c-.38,0-.65.42-.81,1.31-.12.68-.24,1.72-.37,3.12a31.43,31.43,0,0,1-.32,3.19,14.88,14.88,0,0,1-1.08,3.57c-1.28,2.31-2.89,3.46-4.85,3.49a6,6,0,0,1-1.19-.17c-1.83-.44-3.29-1.84-4.41-4.21s-1.32-5.69-.7-10c.26-1.78.47-3.11.64-4q.33-1.81.91-5.44,1.79-10.95,3.86-15.95c.41-1,.84-1.85,1.28-2.67,2.15-3.82,4.8-5.4,7.86-4.69,2.43.6,4.27,2.45,5.49,5.52a1.2,1.2,0,0,1,.15.3,29.21,29.21,0,0,1,1.2,9.12c0,5.7.2,11.88.48,18.53a2.49,2.49,0,0,0,.79,1.82.83.83,0,0,0,1.17-.08,1,1,0,0,0,.13-.28c0-.12.08-.4.17-.84.15-1.14.41-4.88.7-11.23a52.75,52.75,0,0,1,.85-8.45l.06-.3c.93-4.58,3-7.4,6.14-8.35a9.93,9.93,0,0,1,1.65-.23,7.24,7.24,0,0,1,2.57.39,8,8,0,0,1,4.53,3.73,12.29,12.29,0,0,1,1.11,6.31,45.81,45.81,0,0,1-1.33,9c-1.37,5.56-4.21,12.41-8.3,20.68-1.87,3.75-3.8,5.7-5.83,5.88a5.22,5.22,0,0,1-1.93-.25c-1.69-.59-3.25-2.19-4.75-4.8a55.43,55.43,0,0,1-5.34-13.49.71.71,0,0,1-.08-.21A1.57,1.57,0,0,0,316.25,150.19Zm3.66-24a5.4,5.4,0,0,0-1.37-4.64,3.55,3.55,0,0,0-1.62-.91c-.76-.14-1.19,0-1.31.43l-.08.49a2.35,2.35,0,0,0,.2.86,14.65,14.65,0,0,0,2.6,3.87l.52.51.45.12a.47.47,0,0,0,.54-.36Zm21,5a4.23,4.23,0,0,0-1.18-3.87,3.84,3.84,0,0,0-1.46-.94c-.78-.22-1.24-.15-1.36.19l-.08.36a2,2,0,0,0,.17.82,13.08,13.08,0,0,0,2.4,3.43,4.53,4.53,0,0,0,.57.51l.31.11a.65.65,0,0,0,.55-.26Z"/><path class="cls-27" d="M351.59,145.27l-.06,0a4,4,0,0,1-1.88-1.5,4,4,0,0,1-.74-2.27,3.18,3.18,0,0,1,.1-.77,3,3,0,0,1,2.71-2.17,5.09,5.09,0,0,0,.73-1.17l.11-.28.09-.45a3.81,3.81,0,0,1-.89-3.37,2.69,2.69,0,0,1,.4-.84,2.8,2.8,0,0,1,1.7-1.16,3.58,3.58,0,0,1,2.26.21l.06,0a6.1,6.1,0,0,1,2.95,2.62,5.81,5.81,0,0,1,.77,2.78,8.89,8.89,0,0,1-.31,2.65A8.47,8.47,0,0,1,359,141a9.2,9.2,0,0,1-2.16,3.19,5.83,5.83,0,0,1-1.89,1.19,4.48,4.48,0,0,1-1.55.27A4.64,4.64,0,0,1,351.59,145.27Z"/><path class="cls-27" d="M386.71,158.75c-1.42-.77-2.44-.42-3,1.06a6.05,6.05,0,0,0-.35,1.5c-.23,3.18.69,6.94,2.66,11.31.27.62.7,1.54,1.28,2.77a40.26,40.26,0,0,1,3.3,9.13,14.81,14.81,0,0,1,.15,4.57,11,11,0,0,1-.78,3.12,10.06,10.06,0,0,1-7.31,6.09,1,1,0,0,1-.45.13c-3.75.78-7.68,0-11.93-2.38a5.78,5.78,0,0,1-.61-.42l-.59-.32a32.12,32.12,0,0,1-11.7-14,41.09,41.09,0,0,1-1.92-4.93c-1.2-4.07-1.44-7.49-.61-10.27a9.18,9.18,0,0,1,1.4-2.93,6.43,6.43,0,0,1,6-2.9,7,7,0,0,1,2.42.69,8.15,8.15,0,0,1,4.33,6c.13.56.27,1.34.42,2.36a30.91,30.91,0,0,0,.83,4.05,4.48,4.48,0,0,0,2.14,2.48c1,.55,1.81.51,2.4-.11a2.33,2.33,0,0,0,.35-.62,4.61,4.61,0,0,0,.1-1.77,23.76,23.76,0,0,0-2.72-7.52c-1-1.94-1.65-3.33-2-4.18a18.61,18.61,0,0,1-.88-12.75,10.92,10.92,0,0,1,8.05-7.72,14.21,14.21,0,0,1,10.68,1.73c4.92,2.74,8.54,7.39,10.7,13.74.12.31.22.6.31.88,1.17,3.53,1.29,6.33.41,8.41a4.54,4.54,0,0,1-4.71,3.11l-.36,0a4.81,4.81,0,0,1-1.87-.69c-1.3-.81-2.51-2.7-3.69-5.69-.13-.3-.21-.51-.26-.63A6.34,6.34,0,0,0,386.71,158.75Zm-21.35,12.11a.47.47,0,0,0,.63-.28l.11-.35a6.4,6.4,0,0,0-.56-5l-.36-.58a2.86,2.86,0,0,0-.82-.59c-.84-.32-1.37-.11-1.6.62a3.07,3.07,0,0,0,0,.94,16.27,16.27,0,0,0,1.83,4.47A3,3,0,0,0,365.36,170.86Zm30-8.76a.56.56,0,0,0,.73-.17l.13-.34a6.67,6.67,0,0,0-.41-5.16,3.26,3.26,0,0,0-.34-.62,3.33,3.33,0,0,0-.83-.71c-.82-.41-1.39-.27-1.71.41a3.39,3.39,0,0,0,0,1,17.47,17.47,0,0,0,1.69,4.75A3.63,3.63,0,0,0,395.39,162.1Zm-8.17,25.71a5.93,5.93,0,0,0-.05-4.75,3.7,3.7,0,0,0-1.35-1.59c-.73-.36-1.25-.21-1.54.43,0,.31,0,.64-.06,1a19.87,19.87,0,0,0,1.55,4.62,2.4,2.4,0,0,0,.65.89.51.51,0,0,0,.64-.22C387.11,188.06,387.17,187.93,387.22,187.81Z"/><path class="cls-27" d="M131.69,341.15c-2.06-1.35-2.63-2.56-1.76-3.6.58-.58,1.76-.8,3.53-.7a25.74,25.74,0,0,1,5,.78c.19-.23.38-.45.56-.68,2.19-2.63,5.14-6.81,9-12.48-2.24-2-3-4.25-2.42-6.55a1.55,1.55,0,0,1,.16-.5,5.51,5.51,0,0,1,1.11-1.86c1.89-2,4.51-2.84,7.79-2.59a12.82,12.82,0,0,1,2,.27,3.89,3.89,0,0,1,3.11-.47,3.06,3.06,0,0,1,.63.26,2.57,2.57,0,0,1,1.3,2.18,25.74,25.74,0,0,1,3.7,2.51c4.51,3.5,7.41,7.18,8.75,11.36a12.68,12.68,0,0,1-1,10.23c-2,3.65-5.44,6.37-10.52,7.9a16.61,16.61,0,0,1-2,.55,34.14,34.14,0,0,1-14.61-.54c-1.48-.36-2.56-.67-3.24-.9a.17.17,0,0,0-.14.08l-.17.11a5.2,5.2,0,0,1-4.09.13,5.1,5.1,0,0,1-.86-.38,4.19,4.19,0,0,1-2.16-3Q133.49,342.25,131.69,341.15ZM155,329.32c-2.22,3.83-4.46,7.43-6.79,10.78a.9.9,0,0,1,.21,0c4.66.71,7.91,0,9.81-1.93a5.11,5.11,0,0,0,.46-.58c1-1.51.87-3.2-.35-5.08a5.74,5.74,0,0,0-.73-.94A16.23,16.23,0,0,0,155,329.32Zm15.93,4a.59.59,0,0,0,.59-.14l.14-.23.14-.23a1.15,1.15,0,0,0,.1-.23,1.44,1.44,0,0,0,0-.24c0-.1,0-.18,0-.24a1.85,1.85,0,0,1,0-.25c0-.1,0-.17,0-.2s0-.11,0-.23a.93.93,0,0,0,0-.21s0-.17-.07-.45c-.13-.55-.35-1.32-.65-2.32a3.47,3.47,0,0,0-1-1.68c-.48-.29-.8-.39-1-.31a.91.91,0,0,0-.47.42,2,2,0,0,0,.48,1.62,2.34,2.34,0,0,0,.19.3,5.12,5.12,0,0,1,.68,2.68,2.2,2.2,0,0,0,.55,1.83Z"/><path class="cls-27" d="M187,333.79a12.81,12.81,0,0,1,8.17-4.18,11.36,11.36,0,0,1,4.13.41,8.79,8.79,0,0,1,5.49,4.61,16.7,16.7,0,0,1,1.29,10.4,22.88,22.88,0,0,1-.56,2.54,18.35,18.35,0,0,1-17,13.21,18.19,18.19,0,0,1-6.21-.88,15.7,15.7,0,0,1-8.1-5.52,10.62,10.62,0,0,1-1.88-9.22,14.34,14.34,0,0,1,1.19-3,26.21,26.21,0,0,1,3.75-5c2.76-2.82,5.39-4.09,8-3.85a11.11,11.11,0,0,1,1.12.22l.32.06Zm.95,6.57a2.79,2.79,0,0,0-.37-2.89,3.21,3.21,0,0,0-1.28-1c-.66-.17-1.12,0-1.38.41a1.44,1.44,0,0,0,0,.57,7.53,7.53,0,0,0,1.66,2.78,3.37,3.37,0,0,0,.43.38l.26.09a.5.5,0,0,0,.55-.15Zm2.34,2.37c-.11.25-.86,1.64-2.28,4.17a12.45,12.45,0,0,0-.88,1.63,5.21,5.21,0,0,0-.3,3.62,3.79,3.79,0,0,0,2.24,2.39,5.21,5.21,0,0,0,.62.22c2.16.59,4.24-.11,6.15-2.07a16.55,16.55,0,0,0,4-6.58,20.56,20.56,0,0,0,1-4.73c.21-3.86-1-6.16-3.82-7a8.21,8.21,0,0,0-4,0,36.43,36.43,0,0,0-3.5,1.11,6.2,6.2,0,0,1,1.17,6A8.44,8.44,0,0,1,190.28,342.73ZM201.77,333c-.4-.07-.65,0-.75.17l-.08.21a.62.62,0,0,0,0,.37,3.72,3.72,0,0,0,1.28,1.75l.24.07a.33.33,0,0,0,.27-.16.24.24,0,0,1,.1-.11,1.79,1.79,0,0,0-.41-1.8A2.07,2.07,0,0,0,201.77,333Z"/><path class="cls-27" d="M219.54,359.25c-.36,0-.6.33-.71,1a20.39,20.39,0,0,0-.22,2.22,17.71,17.71,0,0,1-.15,2.28,7.78,7.78,0,0,1-.9,2.58,5.8,5.8,0,0,1-4.89,2.62,10.7,10.7,0,0,1-1.27-.11,6.61,6.61,0,0,1-4.64-3.09c-1.08-1.72-1.19-4.09-.4-7.1.33-1.26.6-2.19.8-2.81.26-.84.63-2.12,1.11-3.81a56.11,56.11,0,0,1,4.17-11.21c.39-.67.77-1.3,1.17-1.88,1.91-2.72,3.95-3.9,6.23-3.58A5.6,5.6,0,0,1,224,339.8a.92.92,0,0,1,.13.19,20.46,20.46,0,0,1,1.29,6.29,107.71,107.71,0,0,0,1.79,13,1.59,1.59,0,0,0,.92,1.18,1,1,0,0,0,1.08-.21.81.81,0,0,0,.09-.21c0-.09,0-.29.06-.61,0-.82-.19-3.48-.52-8a30.4,30.4,0,0,1,0-6l0-.22c.42-3.34,1.81-5.56,4.07-6.73a8.63,8.63,0,0,1,1.2-.44,6.46,6.46,0,0,1,1.92-.19,5.6,5.6,0,0,1,3.77,1.67,8,8,0,0,1,1.79,4.08,30.62,30.62,0,0,1,.5,6.48,53.7,53.7,0,0,1-3.46,16c-1.07,3-2.65,4.7-4.7,5.17a7.51,7.51,0,0,1-2,.15,9.62,9.62,0,0,1-5.55-2.72,26,26,0,0,1-6.37-9,.43.43,0,0,1-.09-.15A1.86,1.86,0,0,0,219.54,359.25ZM222,342.1a3.34,3.34,0,0,0-1.09-3.16,2.53,2.53,0,0,0-1.24-.54c-.58-.06-.91.06-1,.37l-.08.35a1.71,1.71,0,0,0,.14.6,8.3,8.3,0,0,0,2,2.56l.42.33.36.05a.43.43,0,0,0,.43-.3Zm16.76.46a2.66,2.66,0,0,0-1.4-2.42,2.58,2.58,0,0,0-1.19-.37c-.61,0-.94.12-1,.38l0,.26a1.31,1.31,0,0,0,.21.54,7.77,7.77,0,0,0,2.24,1.91,4,4,0,0,0,.51.25h.26a.58.58,0,0,0,.37-.29Z"/><path class="cls-27" d="M278.13,347.77c.05.23.15.59.3,1.07s.26.89.32,1.14a14.22,14.22,0,0,1,.21,2.95,21.25,21.25,0,0,1-.9,7c-1.76,4.66-5.65,7.91-11.54,9.42a21.43,21.43,0,0,1-3.51.58c-7.87.61-13.32-2.23-15.89-7.95a16.06,16.06,0,0,1-.94-2.79,19,19,0,0,1-.46-4.6c0-4.72.49-8,1.38-9.93a7.13,7.13,0,0,1,3.25-3.42,6.2,6.2,0,0,1,2.47-.64,6.37,6.37,0,0,1,5.84,3,8.42,8.42,0,0,1,1.39,3.85,28.62,28.62,0,0,1-.46,6,18.34,18.34,0,0,0-.2,4.1c.38,3.51,2.13,5.86,5.35,6.95a6.24,6.24,0,0,0,2.47.25,7.31,7.31,0,0,0,3.4-1.35c2.82-2.29,3.65-6,2.67-11.1-.14-.75-.39-1.87-.74-3.35s-.56-2.66-.7-3.4c-.57-3.08-.38-5.06.55-5.94a3.12,3.12,0,0,1,.88-.58l.39-.15c1.57-.25,2.67.55,3.29,2.43.08.23.15.44.2.64a1.42,1.42,0,0,1,0,.31c0,.17.06.28.08.34a4.38,4.38,0,0,0,.3.84,4.28,4.28,0,0,1,.37.87c0,.14.06,1,.07,2.44A5.56,5.56,0,0,0,278.13,347.77Zm-25.79-4.3,0,.4.06.17.23.34.77.76.94.66,1,.52.34.2.16,0h.32a.55.55,0,0,0,.34-.37v-.09l0-.09v-.09c-.14-.38-.27-.77-.41-1.16l-.86-1-1.18-.6-.48-.07-.41,0A2.1,2.1,0,0,0,252.34,343.47ZM273,341.63a1.15,1.15,0,0,0,1.12,1,1.65,1.65,0,0,0,.32,0,1,1,0,0,0,.89-.86,1.19,1.19,0,0,0,0-.27,1.23,1.23,0,0,0-1.16-.92,2.16,2.16,0,0,0-.37,0A1,1,0,0,0,273,341.63Z"/><path class="cls-27" d="M282.66,340.37c-2.5.52-4.05.36-4.62-.39a2.94,2.94,0,0,1-.27-.67c-.26-1.09.56-2.06,2.41-3a2.82,2.82,0,0,1,.46-.23c7.07-3.43,12.2-6.13,15.92-7.66,1.28-.53,2.53-1,3.75-1.42a48.82,48.82,0,0,1,6.43-1.76c3.81-.64,6.27-.16,7.36,1.66a3.31,3.31,0,0,1-.49,3.69c-1.1,1.48-3.66,3.05-7.68,4.5l-.75.26c-1.25.43-2.2.73-2.85.91,3.71,4.4,6.43,8.08,7.9,11.19,1.86,4.12,2.26,7.36,1.08,9.71a6.55,6.55,0,0,1-4.05,3.32,7.16,7.16,0,0,1-5.55-.47.49.49,0,0,0-.18-.14c-2-1.1-3.6-3.41-4.82-6.9-.49-1.39-1.19-4.43-2.2-9.11a41.82,41.82,0,0,0-1.48-5.55c-3.3.58-6.23,1.13-8.83,1.7Zm20.14,3.93c.85-.39,1.08-1.12.71-2.18a5,5,0,0,0-.46-.78,6.28,6.28,0,0,0-1.83-2.08,2.64,2.64,0,0,0-1-.11c-.49,0-.74.26-.76.7a1.08,1.08,0,0,0,0,.26s0,.13.08.35l.19.31c.07.19.2.49.36.91a6.16,6.16,0,0,0,1.75,2.52A1.68,1.68,0,0,0,302.8,344.3Zm9.11-16.22a3.73,3.73,0,0,0-2.65-1.78,2.8,2.8,0,0,0-1.53.12c-.6.3-.81.66-.62,1.1l.5.43a11.16,11.16,0,0,0,3.34.95,3.18,3.18,0,0,0,.64,0l.24-.1c.2-.15.27-.29.23-.43Z"/><path class="cls-27" d="M335.25,323.9c-1.13.67-1.35,1.49-.65,2.49a4.13,4.13,0,0,0,.83.84c2,1.42,5,2.28,9,2.39.57,0,1.43,0,2.58,0a49.72,49.72,0,0,1,8.29.37,11.93,11.93,0,0,1,3.56,1.2,7.27,7.27,0,0,1,2.07,1.5c1.87,2,2.24,4.65.94,7.86a1.3,1.3,0,0,1-.15.42c-1.54,3.4-4.69,6.52-9.38,9.11-.15.08-.4.2-.73.34l-.64.35a31.34,31.34,0,0,1-18.17,2.87,27.49,27.49,0,0,1-4.54-1c-3.4-1.17-5.55-2.76-6.58-4.66a5.59,5.59,0,0,1-.71-2.31,5.79,5.79,0,0,1,2.26-5.12,8,8,0,0,1,8.26-1.23c.43.16,1,.41,1.76.75a20.16,20.16,0,0,0,3.15,1.17,4.6,4.6,0,0,0,3-.49c1-.5,1.43-1.1,1.34-1.77a1.56,1.56,0,0,0-.22-.5,3.32,3.32,0,0,0-1.15-.78,23.58,23.58,0,0,0-6.53-1.24c-1.8-.18-3.06-.36-3.79-.51a12.26,12.26,0,0,1-8.18-5.39,8.84,8.84,0,0,1-.58-8.47,11.49,11.49,0,0,1,5.48-5.76c3.56-1.92,7.72-2.45,12.79-1.72a6.86,6.86,0,0,1,.71.09c2.82.4,4.86,1.2,6.05,2.51a3.48,3.48,0,0,1,.51,4.48,1.37,1.37,0,0,1-.15.25,4.34,4.34,0,0,1-1.23,1.15c-1.1.67-2.95.9-5.49.62l-.54-.06A5.4,5.4,0,0,0,335.25,323.9Zm-3.55,19.59c.24-.15.32-.33.22-.55l-.14-.23a4.71,4.71,0,0,0-3.51-1.9l-.57,0a3,3,0,0,0-.87.25c-.73.39-.94.82-.65,1.31a2.21,2.21,0,0,0,.6.43,12.47,12.47,0,0,0,4,.88A3.15,3.15,0,0,0,331.7,343.49ZM341,319.1a.45.45,0,0,0,.15-.58l-.18-.21a5.34,5.34,0,0,0-3.7-1.55,2,2,0,0,0-.55,0,2.68,2.68,0,0,0-.77.3c-.57.41-.69.85-.35,1.32a2.46,2.46,0,0,0,.64.37,11.89,11.89,0,0,0,3.88.55A3,3,0,0,0,341,319.1Zm15.17,14.58a4.38,4.38,0,0,0-3.6-1.43,4,4,0,0,0-1.85.53c-.62.45-.77.9-.46,1.35.21.12.45.24.71.37a15.26,15.26,0,0,0,4.25.26,2.67,2.67,0,0,0,1-.26.46.46,0,0,0,.16-.58Z"/></g></g></svg>